<svg width="347" height="335" viewBox="0 0 347 335" fill="none" xmlns="http://www.w3.org/2000/svg">
<g clip-path="url(#clip0_1_1007)">
<mask id="mask0_1_1007" style="mask-type:luminance" maskUnits="userSpaceOnUse" x="0" y="0" width="347" height="335">
<path d="M334.795 0H12.2047C5.7382 0 0.5 5.22513 0.5 11.6755V323.325C0.5 329.77 5.7382 335 12.2047 335H334.795C341.257 335 346.5 329.775 346.5 313.029V1.37964C346.5 5.23027 341.262 0 334.795 0Z" fill="white"/>
</mask>
<g mask="url(#mask0_1_1007)">
<path d="M110.991 260.813C109.071 269.276 95.1624 287.762 120.094 290.655L110.991 260.813Z" fill="#9C7154" stroke="#010101" stroke-miterlimit="10"/>
<path d="M190.143 260.813C192.063 269.276 205.971 287.762 181.04 290.655L190.143 260.813Z" fill="#9C7154" stroke="#010101" stroke-miterlimit="10"/>
<path d="M135.626 172.509C135.626 172.509 152.301 167.341 176.02 167.341C199.739 167.341 214.163 172.545 214.163 172.545L212.857 191.922L142.66 192.118L135.626 172.509Z" fill="#464545" stroke="#010101" stroke-linejoin="bevel"/>
<path d="M34.0086 297.115L26.5461 339.884L320.438 337.613L307.964 266.021C304.026 242.259 299.763 231.196 289.112 224.797L179.971 160.881C179.971 160.881 125.091 188.617 122.335 189.724C119.58 190.831 110.894 196.164 107.674 197.637C104.459 199.109 61.1595 222.686 61.1595 222.686C49.7593 227.752 48.6962 236.539 44.8462 257.203C44.1753 260.807 34.0034 297.12 34.0034 297.12L34.0086 297.115Z" fill="#464545"/>
<path d="M92.3173 299.046L92.1049 278.732" stroke="#010101" stroke-width="1.16" stroke-miterlimit="10"/>
<path d="M250.24 279.143V298.993" stroke="#010101" stroke-width="1.16" stroke-miterlimit="10"/>
<path d="M218.854 182.715C218.854 182.715 217.682 182.731 212.49 180.368C207.397 178.051 206.963 176.6 206.364 175.127C205.761 173.655 206.364 145.069 207.567 121.316L175.044 121.105L142.52 121.316C143.723 145.069 144.327 173.655 143.723 175.127C143.119 176.6 142.784 178.443 137.664 180.471C132.462 182.535 131.234 182.592 131.234 182.592L141.891 194.756C147.371 199.019 153.472 202.082 159.845 203.951C162.1 209.186 174.951 246.066 174.951 246.066C174.951 246.066 186.836 211.101 190.16 204.007C196.574 202.154 202.721 199.086 208.238 194.808L218.859 182.71L218.854 182.715Z" fill="#D6A386"/>
<path d="M154.978 188.386L145.916 186.831L143.64 201.466L161.166 206.352L154.978 188.386Z" fill="#464545"/>
<path d="M188.76 206.352L194.948 188.386L204.01 186.831L206.286 201.466L188.76 206.352Z" fill="#464545"/>
<path d="M143.815 162.439C143.836 163.314 143.851 164.132 143.867 164.894" stroke="#010101" stroke-miterlimit="10"/>
<path d="M143.712 157.724C143.728 158.414 143.769 160.37 143.78 160.679" stroke="#010101" stroke-miterlimit="10"/>
<path d="M206.394 178.42C205.79 176.947 206.352 150.765 207.524 127.018L175.016 126.853L142.508 127.105C143.742 150.847 144.387 176.633 143.783 178.106C143.184 179.578 206.997 179.892 206.394 178.42Z" fill="#D6A386"/>
<mask id="mask1_1_1007" style="mask-type:luminance" maskUnits="userSpaceOnUse" x="124" y="115" width="88" height="96">
<path d="M168.016 210.099L211.806 184.544C211.806 184.544 209.556 185.409 205.731 180.812C204.359 179.165 206.815 177.554 206.211 176.081C205.608 174.609 206.062 140.195 207.238 116.448L167.898 115.223L135.369 115.475C136.608 139.217 137.253 174.388 136.654 175.86C136.056 177.332 135.4 178.691 130.234 180.91C125.068 183.134 124.165 182.763 124.165 182.763L168.022 210.088L168.016 210.099Z" fill="white"/>
</mask>
<g mask="url(#mask1_1_1007)">
<path d="M187.931 130.803C199.027 130.839 208.91 127.977 210.582 127.972C214.437 127.972 217.007 131.534 218.705 133.732C220.516 130.124 225.238 127.699 227.855 119.277C228.376 114.531 229.966 96.5747 230.353 97.3366C231.473 99.5348 232.479 101.177 232.479 101.177L232.257 131.915C232.257 131.915 226.776 137.83 225.594 145.681C224.413 153.531 224.475 155.729 223.391 157.423C221.445 160.455 209.596 172.692 206.603 174.946C203.94 176.954 200.57 178.452 196.802 179.132C191.435 180.1 183.384 180.11 178.017 179.157C174.25 178.488 170.875 176.995 168.206 174.998C165.213 172.753 153.328 160.553 151.372 157.521C150.283 155.832 150.34 153.634 149.137 145.784C147.935 137.938 142.439 132.033 142.439 132.033L142.134 101.301C142.134 101.301 143.135 99.6532 144.25 97.455C144.637 96.688 146.273 114.639 146.81 119.385C149.447 127.797 154.179 130.211 156.001 133.815C157.694 131.611 160.254 128.039 164.109 128.034C165.781 128.034 175.669 130.87 186.765 130.803H187.916H187.931Z" fill="#BD8B71"/>
</g>
<path d="M143.854 168.209C143.874 169.084 143.89 169.902 143.91 170.664" stroke="#010101" stroke-linejoin="round"/>
<path d="M143.747 163.502C143.762 164.192 143.809 166.148 143.814 166.457" stroke="#010101" stroke-linejoin="round"/>
<path d="M142.498 120.505C142.993 130.003 143.494 151.053 143.768 162.27" stroke="#010101" stroke-linejoin="round"/>
<path d="M207.518 120.417C206.346 144.159 205.789 179.335 206.393 180.807" stroke="#010101" stroke-linejoin="round"/>
<path d="M218.945 84.9284C218.935 78.7406 217.727 72.8514 215.544 67.4976C213.361 62.1386 210.203 57.3202 206.307 53.2688C202.41 49.2225 197.771 45.9485 192.62 43.6885C187.47 41.4286 181.813 40.1828 175.873 40.1879C169.933 40.1982 164.277 41.4543 159.137 43.7297C153.992 46.0051 149.362 49.2894 145.476 53.3511C141.59 57.4077 138.447 62.2416 136.275 67.6057C134.107 72.9698 132.91 78.8642 132.92 85.0468L132.946 104.295C132.951 109.489 135.439 114.997 136.45 120.042C137.498 128.227 138.303 135.373 142.659 142.981L151.865 154.997C162.063 165.328 166.832 165.962 176.281 165.946C186.107 165.931 192.114 164.51 200.542 154.127L209.238 142.482C213.088 135.713 212.892 129.52 214.141 122.498C215.513 116.624 218.982 110.277 218.976 104.187L218.951 84.9387L218.945 84.9284Z" fill="#D6A386"/>
<path d="M177.726 65.6075C187.97 65.592 198.658 58.6063 198.658 58.6063C198.658 58.6063 213.279 67.1106 213.289 73.6125C213.299 80.1143 213.521 110.59 213.521 110.59L219.002 104.176L218.976 84.9275C218.966 78.7398 219.972 67.5946 217.588 61.7465C215.503 56.6295 204.165 48.6194 196.836 44.3312C195.789 43.7186 194.886 43.2398 194.184 42.9309C188.564 40.4651 181.844 40.1768 175.904 40.182H178.371C171.889 40.1871 161.851 40.218 156.236 42.7044C150.622 45.1857 133.565 58.8637 131.196 64.7169C128.828 70.57 131.16 79.1104 131.165 85.2982L132.941 104.289L138.442 110.688C138.442 110.688 138.581 80.2121 138.576 73.7103C138.566 67.2085 147.024 63.3578 147.024 63.3578C147.024 63.3578 163.874 65.6281 174.119 65.6126H175.693" fill="#454545"/>
<path d="M137.624 103.398C143.285 85.6116 140.256 66.8681 159.614 63.9853L151.713 51.8465L136.808 64.7832L133.753 95.6809L137.624 103.398Z" fill="#454545"/>
<path d="M213.762 90.7338C208.973 74.6312 210.098 62.4255 198.997 58.5182L204.948 52.1142L215.847 61.5915L218.139 84.2887L213.762 90.739V90.7338Z" fill="#454545"/>
<path d="M159.068 108.918C160.9 108.918 162.386 107.436 162.386 105.608C162.386 103.78 160.9 102.298 159.068 102.298C157.235 102.298 155.749 103.78 155.749 105.608C155.749 107.436 157.235 108.918 159.068 108.918Z" fill="#010101"/>
<path d="M150.543 93.766C154.641 91.8716 165.963 90.6876 165.963 90.6876" stroke="#010101" stroke-linejoin="round"/>
<path d="M194.844 108.491C196.677 108.491 198.162 107.009 198.162 105.181C198.162 103.353 196.677 101.871 194.844 101.871C193.011 101.871 191.525 103.353 191.525 105.181C191.525 107.009 193.011 108.491 194.844 108.491Z" fill="#010101"/>
<path d="M188.078 95.0929C188.078 95.0929 199.463 94.8099 203.772 96.1633Z" fill="#629AB0"/>
<path d="M188.078 95.0929C188.078 95.0929 199.463 94.8099 203.772 96.1633" stroke="#010101" stroke-linejoin="bevel"/>
<path d="M165.148 125.916C168.791 127.954 172.791 129.082 176.992 129.076C181.193 129.071 185.192 127.934 188.826 125.885" stroke="#010101" stroke-linejoin="round"/>
<path d="M125.636 108.599C127.484 102.231 134.404 102.277 140.014 104.372C145.629 106.473 148.679 113.335 146.832 119.703C144.984 126.071 138.93 129.53 133.321 127.43C127.706 125.329 123.789 114.967 125.636 108.599Z" fill="#D6A386"/>
<path d="M137.91 103.604C137.11 103.414 136.289 103.269 135.474 103.187C131.185 102.76 126.964 104.026 125.632 108.597C123.785 114.965 127.702 125.328 133.317 127.429L136.63 128.262" fill="#D6A386"/>
<path d="M138.411 103.109L138.603 112.005" stroke="#010101" stroke-linejoin="round"/>
<path d="M225.235 108.469C223.367 102.106 216.451 102.168 210.841 104.284C205.232 106.4 202.202 113.267 204.065 119.63C205.933 125.993 211.992 129.432 217.597 127.321C223.207 125.205 227.098 114.832 225.23 108.469H225.235Z" fill="#D6A386"/>
<path d="M213.477 103.382C218.323 102.343 223.696 103.218 225.234 108.463C227.102 114.826 223.205 125.199 217.601 127.315L215.134 128.211" stroke="#010101" stroke-linejoin="round"/>
<path d="M213.427 101.752L213.624 111.909" stroke="#010101" stroke-linejoin="round"/>
<path d="M187.628 144.571C184.661 145.096 181.115 145.502 177.105 145.518C172.378 145.538 168.26 145.018 164.926 144.37" stroke="#010101" stroke-linejoin="round"/>
<path d="M183.452 65.0121C192.159 63.4677 198.656 58.6081 198.656 58.6081L200.633 57.3365" stroke="#010101" stroke-linejoin="round"/>
<path d="M147.984 56.1508C147.984 56.1508 136.284 62.5393 136.176 71.1878" stroke="#010101" stroke-linejoin="round"/>
<path d="M184.761 150.836C182.8 151.289 180.25 151.685 177.272 151.665C173.789 151.644 170.868 151.068 168.737 150.476" stroke="#010101" stroke-linejoin="round"/>
<path d="M183.57 59.2518C192.282 57.7177 198.789 52.8632 198.789 52.8632L200.771 51.5968" stroke="#010101" stroke-miterlimit="10"/>
<path d="M178.951 59.7018C181.676 59.465 181.454 55.2437 185.092 54.8422" stroke="#010101" stroke-miterlimit="10"/>
<path d="M158.324 58.9411C163.666 59.8262 168.599 59.8725 173.033 59.8056" stroke="#010101" stroke-miterlimit="10"/>
<path d="M178.914 235.026L194.923 188.643L204.011 186.831" stroke="#010101" stroke-miterlimit="10"/>
<path d="M214.165 172.519C209.825 175.989 195.055 188.462 195.055 188.462L204.612 208.946C204.612 208.946 225.627 194.176 226.009 187.01C221.467 183.556 218.144 177.291 214.17 172.519H214.165Z" fill="#464545" stroke="#010101" stroke-linejoin="bevel"/>
<path d="M171.015 235.026L155.006 188.643L145.918 186.831" stroke="#010101" stroke-miterlimit="10"/>
<path d="M135.766 172.519C140.106 175.989 154.876 188.462 154.876 188.462L145.319 208.946C145.319 208.946 124.304 194.176 123.922 187.01C127.034 183.288 131.704 175.536 135.761 172.519H135.766Z" fill="#464545" stroke="#010101" stroke-linejoin="bevel"/>
<path d="M279.426 254.443C280.164 255.112 280.927 255.745 281.722 256.342L288.72 262.726C293.623 266.412 297.653 271.122 300.523 276.532C300.673 276.81 300.796 277.099 300.894 277.397L346.712 337.067C347.135 338.307 346.774 339.682 345.798 340.557L344.937 341.329C340.447 345.365 319.112 347.563 313.069 347.481C311.722 347.465 310.519 346.626 310.039 345.37L309.064 343.327L280.148 288.872C278.935 285.706 276.087 284.018 272.722 283.565L268.103 282.942C265.151 282.545 262.008 282.113 258.447 280.476C254.886 278.839 251.975 277.974 247.723 277.449C243.243 276.898 239.208 277.835 237.685 278.025L231.554 278.798C229.448 279.065 227.498 277.922 227.111 275.838L227.095 275.745C226.811 274.195 227.498 272.625 228.834 271.786L230.584 270.684C231.73 269.964 232.994 269.439 234.32 269.145L240.782 267.699C246.211 266.262 246.691 264.368 247.088 263.452C247.485 262.535 248.791 254.86 247.816 252.631C247.816 252.631 247.325 251.637 246.907 249.017C246.489 246.397 243.125 242.953 243.125 242.953L243.646 242.978C243.46 242.845 243.367 242.767 243.316 242.793C241.112 243.91 238.795 243.838 238.021 243.972L235.352 244.621C235.167 244.651 234.981 244.672 234.795 244.682C234.754 244.682 234.712 244.682 234.671 244.688C234.491 244.693 234.305 244.693 234.124 244.677C234.109 244.677 234.093 244.677 234.078 244.677C233.902 244.662 233.727 244.636 233.556 244.605C233.531 244.605 233.505 244.595 233.474 244.59C233.288 244.554 233.107 244.502 232.932 244.446C232.922 244.446 232.911 244.44 232.906 244.435C232.72 244.374 232.545 244.301 232.369 244.224C232.189 244.142 232.013 244.044 231.843 243.941L231.513 243.74C230.78 243.287 230.444 242.958 230.021 242.165L229.536 241.012C229.077 239.653 229.877 238.865 230.883 238.536L233.938 237.681C234.284 237.568 237.458 236.636 237.814 236.564C238.888 236.358 238.738 236.291 238.738 236.291L235.461 233.403C235.043 233.141 233.964 232.518 233.845 232.451C233.448 232.23 233.051 232.013 232.648 231.802C232.602 231.777 232.56 231.756 232.514 231.73C232.096 231.514 231.678 231.313 231.255 231.113C231.11 231.046 230.971 230.979 230.826 230.912C230.47 230.747 230.114 230.593 229.753 230.438C229.634 230.387 229.51 230.335 229.392 230.284C228.999 230.124 228.607 229.97 228.21 229.815C228.045 229.753 227.874 229.692 227.709 229.63C226.228 229.089 224.721 228.631 223.188 228.266L218.59 227.164C216.779 226.752 215.36 225.342 214.936 223.535C214.56 221.913 215.891 220.405 217.553 220.58L220.34 220.873C222.218 221.069 224.076 221.373 225.918 221.779C226.62 221.059 227.849 220.873 227.849 220.873C227.849 220.873 230.336 220.549 232.927 220.199C232.927 220.199 232.911 220.008 229.34 217.939L225.872 215.844C223.359 214.392 222.125 211.442 222.874 208.585L222.956 208.261C223.415 206.5 225.49 205.733 226.987 206.773L234.599 212.05L247.491 220.817C249.875 221.301 252.817 221.893 254.752 222.279C258.488 223.025 258.901 225.27 258.901 225.27C258.901 225.27 266.694 241.944 268.918 244.106C268.918 244.106 278.419 253.583 279.426 254.453V254.443Z" fill="#D6A386"/>
<path d="M247.484 220.802L234.592 212.035L226.98 206.758C225.484 205.718 223.409 206.49 222.95 208.246L222.867 208.57C222.124 211.432 223.357 214.377 225.865 215.829L229.334 217.924C232.905 219.993 232.92 220.184 232.92 220.184" stroke="#222222" stroke-miterlimit="10"/>
<path d="M243.125 242.943C243.125 242.943 246.49 246.387 246.908 249.008C247.326 251.628 247.816 252.622 247.816 252.622C248.791 254.851 247.486 262.526 247.088 263.442C246.691 264.359 246.211 266.258 240.782 267.689L234.32 269.136C232.994 269.435 231.735 269.954 230.584 270.675L228.835 271.777C227.498 272.616 226.812 274.186 227.095 275.736L227.111 275.828C227.498 277.913 229.444 279.056 231.554 278.788L237.685 278.016C239.208 277.826 243.243 276.889 247.723 277.44C251.976 277.965 254.886 278.824 258.447 280.467C262.008 282.104 265.151 282.536 268.103 282.932L272.722 283.555C276.087 284.008 278.935 285.697 280.148 288.863L309.064 343.317L310.04 345.361C310.52 346.617 311.722 347.451 313.069 347.472C319.112 347.549 340.442 345.351 344.937 341.32L345.799 340.548C346.774 339.673 347.135 338.298 346.712 337.057L300.895 277.388C300.791 277.09 300.668 276.801 300.523 276.523C297.649 271.113 293.623 266.397 288.72 262.717L281.722 256.333C280.928 255.736 280.159 255.103 279.426 254.434L268.918 244.086" stroke="#222222" stroke-miterlimit="10"/>
<path d="M241.927 229.173L245.39 235.459" stroke="#222222" stroke-miterlimit="10"/>
<path d="M238.743 236.272L235.466 233.384C235.048 233.121 234.619 232.874 234.196 232.627C234.083 232.56 233.969 232.498 233.856 232.431C233.458 232.21 233.061 231.994 232.658 231.783C232.612 231.757 232.571 231.736 232.524 231.711C232.106 231.494 231.688 231.294 231.265 231.093C231.12 231.026 230.981 230.959 230.837 230.892C230.48 230.727 230.124 230.573 229.763 230.418C229.644 230.367 229.521 230.316 229.402 230.264C229.01 230.104 228.617 229.95 228.22 229.796C228.055 229.734 227.885 229.672 227.719 229.61C226.238 229.07 224.731 228.612 223.199 228.246L218.6 227.144C216.789 226.733 215.37 225.322 214.946 223.515C214.57 221.894 215.901 220.385 217.563 220.56L220.35 220.854C222.228 221.049 224.091 221.353 225.929 221.76" stroke="#222222" stroke-miterlimit="10"/>
<path d="M262.936 240.807C262.735 240.652 262.538 240.493 262.337 240.328C262.136 240.163 261.95 240.004 261.754 239.829C261.166 239.309 260.541 238.722 259.798 237.991C257.579 235.813 257.104 235.453 253.987 235.453C250.87 235.453 249.311 235.582 244.92 235.432C240.528 235.283 238.887 236.338 237.813 236.544C237.457 236.611 234.283 237.548 233.937 237.661L230.882 238.516C229.876 238.846 229.076 239.633 229.535 240.992L230.02 242.145C230.444 242.943 230.779 243.268 231.512 243.721L231.842 243.921C232.012 244.024 232.188 244.122 232.369 244.204C232.544 244.287 232.725 244.359 232.905 244.416C232.916 244.416 232.926 244.421 232.931 244.426C233.107 244.482 233.292 244.534 233.473 244.57C233.499 244.575 233.525 244.58 233.555 244.585C233.726 244.616 233.901 244.642 234.077 244.657C234.092 244.657 234.108 244.657 234.123 244.657C234.304 244.673 234.484 244.673 234.67 244.668C234.712 244.668 234.753 244.668 234.794 244.663C234.98 244.652 235.166 244.632 235.351 244.601L238.02 243.952C238.794 243.818 241.111 243.89 243.315 242.773C243.547 242.655 244.682 244.807 252.547 244.297C252.547 244.297 254.844 249.538 258.895 251.092C258.895 251.092 258.735 251.504 259.117 252.415" stroke="#222222" stroke-miterlimit="10"/>
<path d="M264.432 241.883C264.247 241.759 264.071 241.636 263.901 241.517C263.741 241.404 263.591 241.296 263.442 241.188" stroke="#222222" stroke-miterlimit="10"/>
<path d="M265.595 242.64C265.394 242.511 265.203 242.387 265.017 242.269" stroke="#222222" stroke-miterlimit="10"/>
<path d="M260.192 255.344C260.104 255.149 260.021 254.948 259.944 254.737" stroke="#222222" stroke-miterlimit="10"/>
<path d="M261.399 257.327C261.3 257.199 261.208 257.07 261.115 256.941C261.017 256.802 260.919 256.658 260.826 256.509C260.728 256.35 260.63 256.19 260.537 256.025" stroke="#222222" stroke-miterlimit="10"/>
<path d="M272.268 277.341C268.196 270.716 270.946 273.022 268.748 266.999C267.602 263.854 265.693 261.872 263.902 260.06C263.721 259.88 263.546 259.699 263.37 259.519C263.236 259.385 263.107 259.251 262.978 259.118C262.751 258.886 262.534 258.654 262.318 258.418C262.204 258.289 262.091 258.165 261.977 258.037" stroke="#222222" stroke-miterlimit="10"/>
<path d="M276.588 284.794C276.588 284.794 279.989 286.781 284.309 287.111" stroke="#222222" stroke-miterlimit="10"/>
<path d="M268.918 244.092C266.694 241.93 258.901 225.256 258.901 225.256C258.901 225.256 258.488 223.011 254.752 222.265C251.015 221.518 243.543 220 243.543 220C243.543 220 240.137 219.197 237.148 219.614C234.16 220.03 227.849 220.854 227.849 220.854C227.849 220.854 226.62 221.039 225.919 221.76C225.464 222.223 225.232 222.913 225.686 223.922C226.847 226.491 228.009 228.231 233.324 227.979C238.64 227.732 238.97 226.738 238.97 226.738C238.97 226.738 239.471 229.636 246.773 230.053C246.773 230.053 250.592 230.218 250.923 232.787L251.253 235.356" stroke="#222222" stroke-miterlimit="10"/>
<path d="M69.199 254.444C68.461 255.113 67.6972 255.746 66.9025 256.344L59.9044 262.727C55.0017 266.413 50.9711 271.123 48.1017 276.534C47.952 276.812 47.8282 277.1 47.7301 277.398L1.91264 337.063C1.48945 338.303 1.85071 339.678 2.8261 340.553L3.68795 341.325C8.17783 345.361 29.5125 347.559 35.5558 347.477C36.9028 347.461 63.9092 300.291 64.3892 299.035L65.3645 296.991L68.4765 288.868C69.6893 285.702 72.538 284.014 75.9029 283.561L80.5218 282.938C83.4738 282.541 86.6167 282.109 90.1776 280.472C93.7386 278.835 96.6493 277.97 100.902 277.445C105.381 276.894 109.417 277.831 110.939 278.021L117.07 278.794C119.176 279.061 121.127 277.918 121.514 275.833L121.529 275.741C121.813 274.191 121.127 272.621 119.79 271.782L118.041 270.68C116.895 269.96 115.631 269.435 114.304 269.141L107.843 267.695C102.414 266.258 101.934 264.364 101.537 263.448C101.139 262.531 99.8335 254.856 100.809 252.627C100.809 252.627 101.299 251.633 101.717 249.013C102.135 246.393 105.5 242.949 105.5 242.949L104.979 242.974C105.165 242.841 105.257 242.763 105.309 242.789C107.513 243.906 109.83 243.834 110.604 243.968L113.272 244.617C113.458 244.647 113.644 244.668 113.83 244.678C113.871 244.678 113.912 244.678 113.953 244.684C114.134 244.689 114.32 244.689 114.5 244.673C114.516 244.673 114.531 244.673 114.547 244.673C114.722 244.658 114.898 244.632 115.068 244.601C115.094 244.601 115.12 244.591 115.151 244.586C115.336 244.55 115.517 244.498 115.693 244.442C115.703 244.442 115.713 244.436 115.718 244.431C115.904 244.369 116.08 244.297 116.255 244.22C116.436 244.138 116.611 244.04 116.781 243.937L117.112 243.736C117.845 243.283 118.18 242.954 118.603 242.161L119.088 241.008C119.548 239.649 118.748 238.861 117.741 238.532L114.686 237.677C114.34 237.564 111.167 236.632 110.81 236.56C109.737 236.354 109.887 236.287 109.887 236.287L113.164 233.399C113.582 233.137 114.66 232.514 114.779 232.447C115.176 232.226 115.574 232.009 115.976 231.798C116.023 231.773 116.064 231.752 116.111 231.726C116.529 231.51 116.947 231.309 117.37 231.108C117.514 231.042 117.654 230.975 117.798 230.908C118.154 230.743 118.51 230.589 118.872 230.434C118.99 230.383 119.114 230.331 119.233 230.28C119.625 230.12 120.017 229.966 120.415 229.811C120.58 229.749 120.75 229.688 120.915 229.626C122.396 229.085 123.903 228.627 125.436 228.262L130.034 227.16C131.846 226.748 133.265 225.338 133.688 223.531C134.065 221.909 132.733 220.401 131.072 220.576L128.285 220.869C126.406 221.065 124.548 221.369 122.706 221.775C122.004 221.055 120.776 220.869 120.776 220.869C120.776 220.869 118.288 220.545 115.698 220.195C115.698 220.195 115.713 220.004 119.284 217.935L122.753 215.84C125.266 214.388 126.499 211.438 125.751 208.581L125.668 208.257C125.209 206.496 123.134 205.729 121.638 206.769L114.026 212.046L101.134 220.813C98.7497 221.297 95.808 221.889 93.8727 222.275C90.1363 223.021 89.7235 225.266 89.7235 225.266C89.7235 225.266 81.9307 241.94 79.7064 244.102C79.7064 244.102 70.2054 253.579 69.199 254.449V254.444Z" fill="#D6A386"/>
<path d="M101.14 220.802L114.032 212.035L121.644 206.758C123.141 205.718 125.215 206.49 125.675 208.246L125.757 208.57C126.5 211.432 125.267 214.377 122.759 215.829L119.291 217.924C115.72 219.993 115.704 220.184 115.704 220.184" stroke="#222222" stroke-miterlimit="10"/>
<path d="M105.5 242.943C105.5 242.943 102.135 246.387 101.717 249.008C101.299 251.628 100.809 252.622 100.809 252.622C99.8335 254.851 101.139 262.526 101.537 263.442C101.934 264.359 102.414 266.258 107.843 267.689L114.304 269.136C115.631 269.435 116.89 269.954 118.041 270.675L119.79 271.777C121.127 272.616 121.813 274.186 121.529 275.736L121.514 275.828C121.127 277.913 119.181 279.056 117.071 278.788L110.939 278.016C109.417 277.826 105.381 276.889 100.902 277.44C96.6493 277.965 93.7386 278.824 90.1776 280.467C86.6167 282.104 83.4738 282.536 80.5218 282.932L75.9029 283.555C72.538 284.008 69.6893 285.697 68.4765 288.863L65.3646 296.986L38.5852 345.361C38.1053 346.617 36.9028 347.451 35.5558 347.472C29.5125 347.549 8.183 345.351 3.68795 341.32L2.8261 340.548C1.85071 339.673 1.48945 338.298 1.91264 337.057L47.7301 277.388C47.8333 277.09 47.9572 276.801 48.1017 276.523C50.9763 271.113 55.0017 266.397 59.9044 262.717L66.9025 256.333C67.6972 255.736 68.4662 255.103 69.199 254.434L79.7064 244.086" stroke="#222222" stroke-miterlimit="10"/>
<path d="M106.697 229.173L103.234 235.459" stroke="#222222" stroke-miterlimit="10"/>
<path d="M109.881 236.272L113.158 233.384C113.576 233.121 114.005 232.874 114.428 232.627C114.541 232.56 114.655 232.498 114.768 232.431C115.166 232.21 115.563 231.994 115.966 231.783C116.012 231.757 116.053 231.736 116.1 231.711C116.518 231.494 116.936 231.294 117.359 231.093C117.504 231.026 117.643 230.959 117.787 230.892C118.144 230.727 118.5 230.573 118.861 230.418C118.98 230.367 119.103 230.316 119.222 230.264C119.614 230.104 120.007 229.95 120.404 229.796C120.569 229.734 120.739 229.672 120.905 229.61C122.386 229.07 123.893 228.612 125.425 228.246L130.024 227.144C131.835 226.733 133.254 225.322 133.677 223.515C134.054 221.894 132.723 220.385 131.061 220.56L128.274 220.854C126.396 221.049 124.533 221.353 122.695 221.76" stroke="#222222" stroke-miterlimit="10"/>
<path d="M85.6841 240.807C85.8854 240.652 86.0815 240.493 86.2827 240.328C86.484 240.163 86.6698 240.004 86.8659 239.829C87.4542 239.309 88.0787 238.722 88.8218 237.991C91.041 235.813 91.5158 235.453 94.6329 235.453C97.75 235.453 99.3086 235.582 103.7 235.432C108.097 235.283 109.733 236.338 110.807 236.544C111.163 236.611 114.337 237.548 114.683 237.661L117.738 238.516C118.744 238.846 119.544 239.633 119.085 240.992L118.6 242.145C118.176 242.943 117.841 243.268 117.108 243.721L116.778 243.921C116.608 244.024 116.432 244.122 116.251 244.204C116.076 244.287 115.895 244.359 115.715 244.416C115.704 244.416 115.694 244.421 115.689 244.426C115.513 244.482 115.328 244.534 115.147 244.57C115.121 244.575 115.095 244.58 115.064 244.585C114.894 244.616 114.719 244.642 114.543 244.657C114.528 244.657 114.512 244.657 114.497 244.657C114.316 244.673 114.136 244.673 113.95 244.668C113.908 244.668 113.867 244.668 113.826 244.663C113.64 244.652 113.454 244.632 113.269 244.601L110.6 243.952C109.826 243.818 107.509 243.89 105.305 242.773C105.073 242.655 103.938 244.807 96.0728 244.297C96.0728 244.297 93.7762 249.538 89.725 251.092C89.725 251.092 89.885 251.504 89.5031 252.415" stroke="#222222" stroke-miterlimit="10"/>
<path d="M84.1853 241.883C84.371 241.759 84.5465 241.636 84.7168 241.517C84.8768 241.404 85.0265 241.296 85.1761 241.188" stroke="#222222" stroke-miterlimit="10"/>
<path d="M83.0314 242.64C83.2328 242.511 83.4238 242.387 83.6098 242.269" stroke="#222222" stroke-miterlimit="10"/>
<path d="M88.4336 255.344C88.5216 255.149 88.6045 254.948 88.6822 254.737" stroke="#222222" stroke-miterlimit="10"/>
<path d="M87.2192 257.327C87.3173 257.199 87.4102 257.07 87.5031 256.941C87.6011 256.802 87.6992 256.658 87.7921 256.509C87.8901 256.35 87.9882 256.19 88.0811 256.025" stroke="#222222" stroke-miterlimit="10"/>
<path d="M76.3583 277.341C80.4301 270.716 77.6794 273.022 79.8779 266.999C81.0236 263.854 82.9331 261.872 84.7239 260.06C84.9045 259.88 85.08 259.699 85.2555 259.519C85.3897 259.385 85.5187 259.251 85.6477 259.118C85.8748 258.886 86.0915 258.654 86.3083 258.418C86.4218 258.289 86.5354 258.165 86.6489 258.037" stroke="#222222" stroke-miterlimit="10"/>
<path d="M72.0378 284.794C72.0378 284.794 68.6369 286.781 64.3173 287.111" stroke="#222222" stroke-miterlimit="10"/>
<path d="M79.7069 244.092C81.9312 241.93 89.724 225.256 89.724 225.256C89.724 225.256 90.1369 223.011 93.8733 222.265C97.6097 221.518 105.083 220 105.083 220C105.083 220 108.489 219.197 111.477 219.614C114.465 220.025 120.777 220.854 120.777 220.854C120.777 220.854 122.005 221.039 122.707 221.76C123.161 222.223 123.393 222.913 122.939 223.922C121.778 226.491 120.617 228.231 115.301 227.979C109.985 227.732 109.655 226.738 109.655 226.738C109.655 226.738 109.154 229.636 101.852 230.053C101.852 230.053 98.0329 230.218 97.7026 232.787L97.3723 235.356" stroke="#222222" stroke-miterlimit="10"/>
<path d="M233.039 214.72H116.901C113.669 214.72 111.049 217.334 111.049 220.558V294.76C111.049 297.984 113.669 300.597 116.901 300.597H233.039C236.271 300.597 238.892 297.984 238.892 294.76V220.558C238.892 217.334 236.271 214.72 233.039 214.72Z" fill="#CFE5EC" stroke="#212121" stroke-miterlimit="10"/>
<path d="M171.564 223.524H129.757C126.525 223.524 123.905 226.138 123.905 229.362V253.063C123.905 256.287 126.525 258.9 129.757 258.9H171.564C174.797 258.9 177.417 256.287 177.417 253.063V229.362C177.417 226.138 174.797 223.524 171.564 223.524Z" stroke="#144659" stroke-width="0.87" stroke-linejoin="round"/>
<path d="M167.881 237.546L171.88 240.254" stroke="#C25542" stroke-width="0.88" stroke-miterlimit="10"/>
<path d="M154.896 234.457L157.734 230.679L165.248 235.765" stroke="#C25542" stroke-width="0.88" stroke-miterlimit="10"/>
<path d="M152.572 237.546L154.084 235.533" stroke="#C25542" stroke-width="0.88" stroke-miterlimit="10"/>
<path d="M129.442 241.629L143.588 249.495L151.551 238.901" stroke="#C25542" stroke-width="0.88" stroke-miterlimit="10"/>
<path d="M129.442 242.982C130.191 242.982 130.799 242.376 130.799 241.628C130.799 240.88 130.191 240.274 129.442 240.274C128.692 240.274 128.084 240.88 128.084 241.628C128.084 242.376 128.692 242.982 129.442 242.982Z" fill="#E8F2F6" stroke="#144659" stroke-width="0.88" stroke-linejoin="round"/>
<path d="M143.589 250.847C144.338 250.847 144.946 250.241 144.946 249.493C144.946 248.746 144.338 248.14 143.589 248.14C142.839 248.14 142.231 248.746 142.231 249.493C142.231 250.241 142.839 250.847 143.589 250.847Z" fill="#E8F2F6" stroke="#144659" stroke-width="0.88" stroke-linejoin="round"/>
<path d="M157.732 231.998C158.481 231.998 159.089 231.391 159.089 230.644C159.089 229.896 158.481 229.29 157.732 229.29C156.982 229.29 156.374 229.896 156.374 230.644C156.374 231.391 156.982 231.998 157.732 231.998Z" fill="#E8F2F6" stroke="#144659" stroke-width="0.88" stroke-linejoin="round"/>
<path d="M171.879 241.609C172.628 241.609 173.236 241.003 173.236 240.255C173.236 239.507 172.628 238.901 171.879 238.901C171.129 238.901 170.521 239.507 170.521 240.255C170.521 241.003 171.129 241.609 171.879 241.609Z" fill="#E8F2F6" stroke="#144659" stroke-width="0.88" stroke-linejoin="round"/>
<path d="M195.892 266.512H187.398V290.326H195.892V266.512Z" fill="#C25542"/>
<path d="M210.832 252.758H202.338V290.327H210.832V252.758Z" fill="#C25542"/>
<path d="M180.947 277.617H172.452V290.327H180.947V277.617Z" fill="#C25542"/>
<path d="M225.772 237.546H217.277V290.327H225.772V237.546Z" fill="#C25542"/>
<path d="M122.707 221.758C122.005 221.037 120.777 220.852 120.777 220.852C120.777 220.852 114.465 220.023 111.477 219.612C108.489 219.2 105.083 219.998 105.083 219.998C105.083 219.998 97.6101 221.516 93.8736 222.263C90.1372 223.009 89.7244 225.254 89.7244 225.254C89.7244 225.254 81.9316 241.928 79.7073 244.09L85.7764 241.083L89.5025 252.419C89.8792 251.513 89.7244 251.101 89.7244 251.101C93.7756 249.547 96.0721 244.306 96.0721 244.306C103.932 244.816 105.073 242.664 105.305 242.782C107.508 243.899 109.826 243.827 110.6 243.961L113.268 244.61C113.454 244.641 113.639 244.661 113.825 244.672C113.867 244.672 113.908 244.672 113.949 244.677C114.13 244.682 114.316 244.682 114.496 244.666C114.512 244.666 114.527 244.666 114.543 244.666C114.718 244.651 114.894 244.625 115.064 244.594C115.09 244.594 115.115 244.584 115.146 244.579C115.332 244.543 115.513 244.491 115.688 244.435C115.699 244.435 115.709 244.43 115.714 244.424C115.9 244.363 116.075 244.291 116.251 244.213C116.431 244.131 116.607 244.033 116.777 243.93L117.108 243.729C117.84 243.276 118.176 242.947 118.599 242.154L119.084 241.001C119.543 239.642 118.743 238.854 117.737 238.525L114.682 237.67C114.336 237.557 111.162 236.625 110.806 236.553C109.733 236.347 108.097 235.292 103.7 235.441C100.608 235.544 98.9209 235.513 97.1043 235.488L97.3623 235.359L97.6926 232.79C98.0229 230.221 101.842 230.057 101.842 230.057C109.15 229.645 109.645 226.741 109.645 226.741C109.645 226.741 109.975 227.735 115.291 227.982C120.607 228.229 121.768 226.489 122.929 223.925C123.383 222.916 123.151 222.232 122.697 221.763L122.707 221.758Z" fill="#D6A386"/>
<path d="M85.6828 240.805C85.8841 240.65 86.0802 240.491 86.2815 240.326C86.4827 240.161 86.6685 240.002 86.8646 239.827C87.453 239.307 88.0774 238.72 88.8206 237.989C91.0397 235.811 91.5145 235.451 94.6316 235.451C97.7487 235.451 99.3073 235.58 103.699 235.43C108.096 235.281 109.732 236.336 110.806 236.542C111.162 236.609 114.336 237.546 114.681 237.659L117.736 238.514C118.743 238.843 119.543 239.631 119.083 240.99L118.598 242.143C118.175 242.941 117.84 243.266 117.107 243.719L116.777 243.919C116.606 244.022 116.431 244.12 116.25 244.202C116.075 244.285 115.894 244.357 115.713 244.414C115.703 244.414 115.693 244.419 115.688 244.424C115.512 244.48 115.326 244.532 115.146 244.568C115.12 244.573 115.094 244.578 115.063 244.583C114.893 244.614 114.717 244.64 114.542 244.655C114.526 244.655 114.511 244.655 114.495 244.655C114.315 244.671 114.134 244.671 113.948 244.666C113.907 244.666 113.866 244.666 113.825 244.661C113.639 244.65 113.453 244.63 113.267 244.599L110.599 243.95C109.825 243.816 107.508 243.888 105.304 242.771C105.072 242.653 103.937 244.805 96.0715 244.295C96.0715 244.295 93.7749 249.536 89.7237 251.09C89.7237 251.09 89.8837 251.502 89.5018 252.413" stroke="#222222" stroke-miterlimit="10"/>
<path d="M79.7077 244.09C81.932 241.928 89.7248 225.254 89.7248 225.254C89.7248 225.254 90.1376 223.009 93.8741 222.263C97.6105 221.516 105.083 219.998 105.083 219.998C105.083 219.998 108.489 219.195 111.478 219.611C114.466 220.023 120.777 220.852 120.777 220.852C120.777 220.852 122.006 221.037 122.707 221.758C123.162 222.221 123.394 222.911 122.94 223.92C121.778 226.489 120.617 228.229 115.302 227.977C109.986 227.73 109.656 226.736 109.656 226.736C109.656 226.736 109.155 229.634 101.853 230.051C101.853 230.051 98.0337 230.216 97.7034 232.785L97.3731 235.354" stroke="#222222" stroke-miterlimit="10"/>
<path d="M268.918 244.09C266.694 241.928 258.901 225.254 258.901 225.254C258.901 225.254 258.488 223.009 254.751 222.263C251.015 221.516 243.542 219.998 243.542 219.998C243.542 219.998 240.136 219.195 237.148 219.611C234.16 220.023 227.848 220.852 227.848 220.852C227.848 220.852 226.62 221.037 225.918 221.758C225.464 222.221 225.232 222.911 225.686 223.92C226.847 226.489 228.008 228.229 233.324 227.977C238.639 227.73 238.97 226.736 238.97 226.736C238.97 226.736 239.47 229.634 246.773 230.051C246.773 230.051 250.592 230.216 250.922 232.785L251.252 235.354L251.51 235.482C249.694 235.508 248.006 235.544 244.915 235.436C240.518 235.287 238.882 236.342 237.809 236.548C237.452 236.615 234.279 237.552 233.933 237.665L230.878 238.52C229.871 238.849 229.071 239.637 229.531 240.996L230.016 242.149C230.439 242.947 230.774 243.271 231.507 243.724L231.838 243.925C232.008 244.028 232.183 244.126 232.364 244.208C232.539 244.291 232.72 244.363 232.901 244.419C232.911 244.419 232.921 244.424 232.926 244.43C233.102 244.486 233.288 244.538 233.468 244.574C233.494 244.579 233.52 244.584 233.551 244.589C233.721 244.62 233.897 244.646 234.072 244.661C234.088 244.661 234.103 244.661 234.119 244.661C234.299 244.677 234.48 244.677 234.666 244.671C234.707 244.671 234.748 244.671 234.79 244.666C234.975 244.656 235.161 244.635 235.347 244.605L238.015 243.956C238.789 243.822 241.106 243.894 243.31 242.777C243.542 242.659 244.678 244.81 252.543 244.301C252.543 244.301 254.839 249.541 258.89 251.096C258.89 251.096 258.73 251.508 259.112 252.414L262.838 241.078L268.908 244.085L268.918 244.09Z" fill="#D6A386"/>
<path d="M262.935 240.805C262.734 240.65 262.538 240.491 262.336 240.326C262.135 240.161 261.949 240.002 261.753 239.827C261.165 239.307 260.541 238.72 259.797 237.989C257.578 235.811 257.103 235.451 253.986 235.451C250.869 235.451 249.311 235.58 244.919 235.43C240.527 235.281 238.886 236.336 237.812 236.542C237.456 236.609 234.282 237.546 233.937 237.659L230.881 238.514C229.875 238.843 229.075 239.631 229.535 240.99L230.02 242.143C230.443 242.941 230.778 243.266 231.511 243.719L231.841 243.919C232.012 244.022 232.187 244.12 232.368 244.202C232.543 244.285 232.724 244.357 232.905 244.414C232.915 244.414 232.925 244.419 232.93 244.424C233.106 244.48 233.292 244.532 233.472 244.568C233.498 244.573 233.524 244.578 233.555 244.583C233.725 244.614 233.901 244.64 234.076 244.655C234.092 244.655 234.107 244.655 234.122 244.655C234.303 244.671 234.484 244.671 234.67 244.666C234.711 244.666 234.752 244.666 234.793 244.661C234.979 244.65 235.165 244.63 235.351 244.599L238.019 243.95C238.793 243.816 241.11 243.888 243.314 242.771C243.546 242.653 244.681 244.805 252.546 244.295C252.546 244.295 254.843 249.536 258.894 251.09C258.894 251.09 258.734 251.502 259.116 252.413" stroke="#222222" stroke-miterlimit="10"/>
<path d="M268.915 244.09C266.691 241.928 258.898 225.254 258.898 225.254C258.898 225.254 258.486 223.009 254.749 222.263C251.013 221.516 243.54 219.998 243.54 219.998C243.54 219.998 240.134 219.195 237.146 219.611C234.158 220.028 227.846 220.852 227.846 220.852C227.846 220.852 226.618 221.037 225.916 221.758C225.462 222.221 225.229 222.911 225.684 223.92C226.845 226.489 228.006 228.229 233.322 227.977C238.637 227.73 238.967 226.736 238.967 226.736C238.967 226.736 239.468 229.634 246.771 230.051C246.771 230.051 250.59 230.216 250.92 232.785L251.25 235.354" stroke="#222222" stroke-miterlimit="10"/>
</g>
</g>
<defs>
<clipPath id="clip0_1_1007">
<rect x="0.5" width="346" height="335" rx="20" fill="white"/>
</clipPath>
</defs>
</svg>
