<svg width="347" height="335" viewBox="0 0 347 335" fill="none" xmlns="http://www.w3.org/2000/svg">
<g clip-path="url(#clip0_1_1002)">
<mask id="mask0_1_1002" style="mask-type:luminance" maskUnits="userSpaceOnUse" x="0" y="0" width="347" height="335">
<path d="M334.795 0H12.2047C5.74036 0 0.5 5.22736 0.5 11.6756V323.324C0.5 329.773 5.74036 335 12.2047 335H334.795C341.26 335 346.5 329.773 346.5 323.324V11.6756C346.5 5.22736 341.26 0 334.795 0Z" fill="white"/>
</mask>
<g mask="url(#mask0_1_1002)">
<path d="M162.415 38.4693L177.996 49.3779L194.536 37.8927L178.476 43.0253L162.415 38.4693Z" fill="#C2C3C3"/>
<path d="M243.554 265.542C243.554 265.542 254.371 309.218 260.786 317.192C268.094 326.278 292.54 305.928 288.866 294.731C285.191 283.534 260.311 196.626 260.311 196.626C258.51 189.81 251.595 186.042 244.695 185.491L217.993 183.061L174.725 177.826L100.946 185.455C91.9712 186.222 83.9772 191.416 79.6421 199.293C79.6421 199.293 56.2999 290.711 58.3538 306.875C60.4078 323.04 81.2058 337.146 88.3845 321.933C95.5631 306.721 103.98 260.538 103.98 260.538L111.438 342.376L234.301 341.264L242.599 264.616" fill="#144659"/>
<path d="M228.69 89.2935C228.69 62.0143 209.553 39.3581 184.224 34.2204C174.403 32.2281 160.83 33.9939 152.15 37.5511C132.188 45.7364 118.409 66.0195 118.409 89.2884C118.409 120.284 143.098 145.412 173.552 145.412C204.006 145.412 228.695 120.284 228.695 89.2884L228.69 89.2935Z" fill="#C35543"/>
<path d="M211.066 160.072C229.712 160.072 238.852 154.548 238.852 154.548C238.852 154.548 230.6 100.999 232.06 101.102C233.521 101.205 235.1 101.215 236.808 101.123C232.458 97.3748 230.672 85.5242 226.342 73.4367C225.826 71.6195 225.165 69.9155 224.34 68.335C223.653 66.734 222.91 65.1433 222.09 63.5886C219.003 57.725 214.152 55.6607 210.08 56.0725C201.55 52.5513 189.582 50.9143 173.413 50.9143C151.671 50.9143 138.098 58.8679 129.949 66.8318C131.337 61.5346 133.03 52.5565 125.392 62.1626C123.054 65.1021 121.32 71.8614 120.03 80.5512C119.364 81.9618 119.075 82.8112 119.075 82.8112C119.075 82.8112 118.28 87.8356 118.131 92.5769C115.127 122.569 116.479 162.234 116.479 162.234C116.479 162.234 123.219 160.355 135.806 158.821C134.139 162.126 132.519 164.695 131.007 166.203C145.436 166.461 154.824 162.77 161.301 156.994C161.45 156.994 161.595 156.983 161.75 156.978C175.261 156.638 182.837 157.282 188.942 158.07C193.205 162.77 200.089 165.802 211.721 165.704C210.467 164.453 209.513 162.507 208.8 160.052C209.528 160.067 210.271 160.072 211.061 160.072H211.066Z" fill="#C35543"/>
<path d="M172.908 192.778C172.908 192.778 150.784 187.666 150.784 175.481V103.661C150.784 91.4759 160.687 81.5917 172.908 81.5917C185.129 81.5917 195.032 91.4707 195.032 103.661V173.02C195.032 185.205 172.908 192.778 172.908 192.778Z" fill="#F0D2CE"/>
<path d="M172.813 215.662C174.073 208.223 179.827 196.28 179.827 196.28C199.608 193.289 203.644 193.479 204.145 181.042C197.766 178.977 195.041 179.281 195.026 160.141C195.026 154.005 150.834 160.857 150.638 166.138C150.22 177.351 150.901 177.006 143.33 180.578C143.412 193.587 146.457 194.432 167.059 196.64C167.059 196.64 171.988 209.531 172.808 215.657L172.813 215.662Z" fill="#F0D2CE"/>
<path d="M143.33 180.584C143.412 193.593 146.457 194.437 167.059 196.646C167.059 196.646 171.988 209.536 172.808 215.662" stroke="#010101" stroke-miterlimit="10"/>
<path d="M151.009 150.416C151.009 150.416 150.643 165.978 150.638 166.143C150.22 177.355 150.452 180.521 132.534 182.611C132.033 182.668 124.725 183.358 117.986 183.986L97.4352 185.746" stroke="#010101" stroke-miterlimit="10"/>
<path d="M172.816 215.661C174.075 208.222 179.83 196.279 179.83 196.279C199.611 193.288 203.647 193.478 204.147 181.041" stroke="#010101" stroke-miterlimit="10"/>
<path d="M153.354 140.773V148.959C153.354 148.959 158.014 165.087 169.481 168.763C180.948 172.444 192.111 170.915 195.43 171.404C195.321 170.076 195.404 169.478 195.022 163.532C194.686 158.292 195.068 134.467 195.068 134.467L153.354 140.773Z" fill="#E0A69E"/>
<path d="M140.184 134.05C141.835 141.829 158.262 161.736 171.778 161.695C188.432 161.643 205.359 140.593 206.887 132.187C208.549 123.039 209.395 106.493 209.421 89.0054C209.441 74.4881 198.872 48.2025 184.912 48.2025C170.952 48.2025 138.93 74.6991 138.13 89.0054C138.13 107.054 136.576 117.072 140.179 134.05H140.184Z" fill="#F0D2CE"/>
<path d="M245.443 185.484L227.927 183.986C221.187 183.353 213.879 182.668 213.379 182.611C195.46 180.521 195.688 177.355 195.275 166.143C195.269 165.978 194.903 150.416 194.903 150.416" stroke="#010101" stroke-miterlimit="10"/>
<path d="M280.459 266.481L260.312 196.623C258.511 189.807 252.318 186.193 245.443 185.488" stroke="#010101" stroke-miterlimit="10"/>
<path d="M184.916 48.2025C170.894 48.2025 138.934 74.6991 138.134 89.0054C138.134 107.054 136.58 117.072 140.183 134.05C140.73 136.624 142.897 140.532 146.04 144.598" stroke="#010101" stroke-miterlimit="10"/>
<path d="M215.428 112.349C213.466 106.444 206.174 106.495 200.255 108.446C194.335 110.403 191.131 116.771 193.086 122.67C195.048 128.575 201.431 131.772 207.346 129.821C213.265 127.865 217.383 118.248 215.422 112.349H215.428Z" fill="#F0D2CE"/>
<path d="M211.376 108.033C213.233 108.79 214.699 110.159 215.432 112.352C217.357 118.144 213.899 126.427 207.68 129.691" stroke="#010101" stroke-miterlimit="10"/>
<path d="M181.026 159.627C194.264 154.206 205.762 138.932 207.006 132.075L207.919 126.948" stroke="#010101" stroke-linejoin="round"/>
<path d="M167.061 129.637C168.991 130.76 171.112 131.377 173.336 131.377C175.561 131.377 177.682 130.76 179.612 129.637" stroke="#010101" stroke-linejoin="round"/>
<path d="M188.499 142.198C183.477 146.069 179.416 148.602 174.472 148.592C168.733 148.582 162.308 145.544 159.712 143.269L159.639 143.176C164.083 137.395 183.219 138.306 188.499 142.193V142.198Z" fill="#F0D2CE"/>
<path d="M185.387 140.221C181.377 141.204 177.481 140.89 174.658 140.89H173.491C170.668 140.89 166.772 141.204 162.762 140.221" stroke="#010101" stroke-linejoin="round"/>
<path d="M167.271 144.918C169.201 146.04 171.322 146.658 173.546 146.658C175.771 146.658 177.892 146.04 179.822 144.918" stroke="#010101" stroke-linejoin="round"/>
<path d="M155.768 110.75C157.621 110.75 159.123 109.251 159.123 107.403C159.123 105.555 157.621 104.057 155.768 104.057C153.915 104.057 152.414 105.555 152.414 107.403C152.414 109.251 153.915 110.75 155.768 110.75Z" fill="#010101"/>
<path d="M146.241 97.0193C151.273 95.9078 156.888 95.9284 162.76 96.9267" stroke="#010101" stroke-linejoin="round"/>
<path d="M191.978 110.75C193.831 110.75 195.332 109.251 195.332 107.403C195.332 105.555 193.831 104.057 191.978 104.057C190.125 104.057 188.623 105.555 188.623 107.403C188.623 109.251 190.125 110.75 191.978 110.75Z" fill="#010101"/>
<path d="M201.51 97.0193C196.478 95.9078 190.863 95.9284 184.99 96.9267" stroke="#010101" stroke-linejoin="round"/>
<path d="M209.145 108.573C208.799 74.2258 182.288 46.9724 182.288 46.9724L179.62 40.975L217.232 55.5232C217.232 55.5232 215.586 92.6247 209.145 108.578V108.573Z" fill="#C35543"/>
<path d="M209.146 108.572C208.95 89.0351 200.285 71.7945 192.854 60.5616" stroke="#010101" stroke-miterlimit="10"/>
<path d="M219.608 126.113C224.072 111.282 217.141 97.4028 207.862 94.1442" stroke="#010101" stroke-miterlimit="10"/>
<path d="M110.209 133.311C148.982 135.73 145.085 73.9492 178.795 65.7691C205.404 59.3135 199.604 43.1694 199.604 43.1694L137.132 58.1037" fill="#C35543"/>
<path d="M129.734 110.425C130.528 72.8909 188.427 50.7854 188.432 50.7854" stroke="#010101" stroke-miterlimit="10"/>
<path d="M194.568 59.559C194.568 59.559 187.988 62.6684 178.801 65.7624C166.395 69.9425 158.953 79.1265 153.096 89.4122C145.788 102.246 140.957 116.805 132.06 125.53C126.719 130.771 119.907 133.906 110.215 133.304" stroke="#010101" stroke-linejoin="round"/>
<path d="M123.567 160.686C126.674 160.105 130.776 159.436 135.813 158.823C134.146 162.128 132.526 164.697 131.014 166.205C138.858 166.344 145.211 165.32 150.413 163.425" stroke="#010101" stroke-linejoin="round"/>
<path d="M116.892 133.402L116.484 162.236" stroke="#010101" stroke-linejoin="round"/>
<path d="M138.211 152.248C138.138 152.49 138.066 152.732 137.994 152.968C137.968 153.046 137.942 153.123 137.922 153.205C135.78 159.893 132.276 164.948 131.017 166.204" stroke="#010101" stroke-linejoin="round"/>
<path d="M138.636 150.688C138.6 150.832 138.471 151.331 138.44 151.439" stroke="#010101" stroke-linejoin="round"/>
<path d="M139.007 149.031C138.966 149.236 138.924 149.437 138.878 149.643" stroke="#010101" stroke-linejoin="round"/>
<path d="M231.978 103.624C232.727 114.512 238.868 154.348 238.868 154.348" stroke="#010101" stroke-linejoin="round"/>
<path d="M112.036 126.23C112.036 126.23 116.702 117.52 117.027 113.962L118.405 89.2984C118.405 66.0295 132.184 45.7413 152.146 37.5612C160.826 34.0039 174.399 32.2381 184.22 34.2304C204.223 38.287 220.366 53.2677 226.27 72.8249L226.564 73.7669C230.894 85.8544 232.468 97.1851 236.824 100.933C235.116 101.026 230.414 101.01 228.004 100.284" stroke="#010101" stroke-linejoin="round"/>
<path d="M231.503 157.253C226.889 158.586 220.098 159.878 211.076 159.878C210.292 159.878 209.544 159.868 208.816 159.857C209.528 162.313 210.483 164.259 211.737 165.51C204.466 165.572 199.052 164.408 194.97 162.38" stroke="#010101" stroke-linejoin="round"/>
<path d="M231.153 122.653C230.049 122.587 236.5 158.89 236.5 158.89" stroke="#010101" stroke-linejoin="round"/>
<path d="M206.706 150.257C207.186 152.826 208.017 157.788 208.977 160.27" stroke="#010101" stroke-linejoin="round"/>
<path d="M99.7269 265.667L103.979 260.519L106.24 274.176" stroke="#010101" stroke-miterlimit="10"/>
<path d="M241.851 271.594L242.599 264.598L244.994 269.416" stroke="#010101" stroke-miterlimit="10"/>
<path d="M93.0547 254.446C92.3167 255.115 91.5529 255.748 90.7581 256.345L83.7601 262.729C78.8573 266.415 74.8268 271.125 71.9574 276.536C71.8077 276.814 71.6838 277.102 71.5858 277.4L67.0546 290.739C66.6314 291.98 66.9927 293.354 67.9681 294.229L68.8299 295.001C73.3198 299.037 79.1721 301.236 85.2154 301.153C86.5624 301.138 87.7649 300.299 88.2448 299.043L89.2202 296.999L92.3322 288.875C93.5449 285.709 96.3937 284.021 99.7585 283.568L104.377 282.945C107.329 282.548 110.472 282.116 114.033 280.479C117.594 278.842 120.505 277.977 124.757 277.452C129.237 276.901 133.273 277.838 134.795 278.028L140.926 278.801C143.032 279.068 144.983 277.926 145.37 275.841L145.385 275.748C145.669 274.198 144.983 272.628 143.646 271.789L141.896 270.687C140.751 269.967 139.486 269.442 138.16 269.148L131.699 267.702C126.27 266.265 125.79 264.371 125.392 263.455C124.995 262.538 123.689 254.863 124.664 252.633C124.664 252.633 125.155 251.64 125.573 249.02C125.991 246.399 129.356 242.955 129.356 242.955L128.834 242.981C129.02 242.847 129.113 242.77 129.165 242.796C131.368 243.913 133.686 243.841 134.46 243.975L137.128 244.623C137.314 244.654 137.499 244.675 137.685 244.685C137.726 244.685 137.768 244.685 137.809 244.69C137.99 244.695 138.175 244.695 138.356 244.68C138.372 244.68 138.387 244.68 138.403 244.68C138.578 244.664 138.753 244.639 138.924 244.608C138.95 244.608 138.975 244.597 139.006 244.592C139.192 244.556 139.373 244.505 139.548 244.448C139.559 244.448 139.569 244.443 139.574 244.438C139.76 244.376 139.935 244.304 140.111 244.227C140.291 244.144 140.467 244.047 140.637 243.944L140.967 243.743C141.7 243.29 142.036 242.96 142.459 242.168L142.944 241.014C143.403 239.655 142.603 238.868 141.597 238.538L138.542 237.684C138.196 237.57 135.022 236.639 134.666 236.567C133.593 236.361 133.742 236.294 133.742 236.294L137.019 233.406C137.437 233.143 138.516 232.52 138.635 232.453C139.032 232.232 139.43 232.016 139.832 231.805C139.879 231.779 139.92 231.758 139.966 231.733C140.384 231.516 140.802 231.316 141.225 231.115C141.37 231.048 141.509 230.981 141.654 230.914C142.01 230.749 142.366 230.595 142.727 230.44C142.846 230.389 142.97 230.338 143.089 230.286C143.481 230.126 143.873 229.972 144.27 229.818C144.435 229.756 144.606 229.694 144.771 229.632C146.252 229.092 147.759 228.634 149.292 228.268L153.89 227.166C155.701 226.755 157.121 225.344 157.544 223.537C157.921 221.915 156.589 220.407 154.927 220.582L152.141 220.876C150.262 221.071 148.404 221.375 146.562 221.782C145.86 221.061 144.632 220.876 144.632 220.876C144.632 220.876 142.144 220.551 139.553 220.201C139.553 220.201 139.569 220.011 143.14 217.941L146.608 215.846C149.121 214.394 150.355 211.444 149.607 208.587L149.524 208.263C149.065 206.502 146.99 205.735 145.493 206.775L137.881 212.052L124.99 220.819C122.605 221.303 119.664 221.895 117.728 222.281C113.992 223.027 113.579 225.272 113.579 225.272C113.579 225.272 105.786 241.946 103.562 244.108C103.562 244.108 94.061 253.586 93.0547 254.456V254.446Z" fill="#F0D2D0"/>
<path d="M124.995 220.804L137.887 212.037L145.499 206.76C146.995 205.72 149.07 206.492 149.529 208.248L149.612 208.572C150.355 211.434 149.122 214.379 146.614 215.831L143.146 217.926C139.574 219.996 139.559 220.186 139.559 220.186" stroke="#222222" stroke-miterlimit="10"/>
<path d="M129.356 242.945C129.356 242.945 125.991 246.389 125.573 249.01C125.155 251.63 124.664 252.624 124.664 252.624C123.689 254.853 124.995 262.528 125.392 263.445C125.79 264.361 126.27 266.261 131.699 267.692L138.16 269.138C139.486 269.437 140.746 269.957 141.896 270.678L143.646 271.779C144.983 272.618 145.669 274.189 145.385 275.738L145.37 275.831C144.983 277.916 143.037 279.059 140.926 278.791L134.795 278.019C133.273 277.828 129.237 276.891 124.757 277.442C120.505 277.967 117.594 278.827 114.033 280.469C110.472 282.106 107.329 282.539 104.377 282.935L99.7585 283.558C96.3937 284.011 93.5449 285.699 92.3322 288.865L89.2202 296.989L88.2448 299.033C87.7649 300.289 86.5624 301.123 85.2154 301.143C79.1721 301.221 73.325 299.022 68.8299 294.992L67.9681 294.219C66.9927 293.344 66.6314 291.97 67.0546 290.729L71.5858 277.391C71.689 277.092 71.8129 276.804 71.9574 276.526C74.8319 271.115 78.8573 266.4 83.7601 262.719L90.7581 256.335C91.5529 255.738 92.3218 255.105 93.0547 254.436L103.562 244.088" stroke="#222222" stroke-miterlimit="10"/>
<path d="M130.552 229.177L127.089 235.463" stroke="#222222" stroke-miterlimit="10"/>
<path d="M133.736 236.274L137.013 233.386C137.431 233.123 137.859 232.876 138.282 232.629C138.396 232.562 138.51 232.5 138.623 232.434C139.02 232.212 139.418 231.996 139.82 231.785C139.867 231.759 139.908 231.739 139.955 231.713C140.373 231.497 140.791 231.296 141.214 231.095C141.358 231.028 141.498 230.961 141.642 230.894C141.998 230.73 142.354 230.575 142.716 230.421C142.834 230.369 142.958 230.318 143.077 230.266C143.469 230.107 143.861 229.952 144.259 229.798C144.424 229.736 144.594 229.674 144.759 229.612C146.24 229.072 147.747 228.614 149.28 228.248L153.878 227.147C155.69 226.735 157.109 225.324 157.532 223.517C157.909 221.896 156.577 220.387 154.916 220.562L152.129 220.856C150.25 221.051 148.387 221.355 146.55 221.762" stroke="#222222" stroke-miterlimit="10"/>
<path d="M109.543 240.809C109.744 240.655 109.94 240.495 110.142 240.33C110.343 240.165 110.529 240.006 110.725 239.831C111.313 239.311 111.937 238.724 112.681 237.993C114.9 235.815 115.375 235.455 118.492 235.455C121.609 235.455 123.167 235.584 127.559 235.434C131.956 235.285 133.592 236.34 134.666 236.546C135.022 236.613 138.196 237.55 138.541 237.664L141.597 238.518C142.603 238.848 143.403 239.635 142.943 240.994L142.458 242.147C142.035 242.945 141.7 243.27 140.967 243.723L140.637 243.923C140.466 244.026 140.291 244.124 140.11 244.207C139.935 244.289 139.754 244.361 139.573 244.418C139.563 244.418 139.553 244.423 139.548 244.428C139.372 244.485 139.186 244.536 139.006 244.572C138.98 244.577 138.954 244.582 138.923 244.588C138.753 244.618 138.577 244.644 138.402 244.66C138.387 244.66 138.371 244.66 138.356 244.66C138.175 244.675 137.994 244.675 137.808 244.67C137.767 244.67 137.726 244.67 137.685 244.665C137.499 244.655 137.313 244.634 137.127 244.603L134.459 243.954C133.685 243.821 131.368 243.893 129.164 242.775C128.932 242.657 127.797 244.809 119.932 244.299C119.932 244.299 117.635 249.54 113.584 251.095C113.584 251.095 113.744 251.506 113.362 252.418" stroke="#222222" stroke-miterlimit="10"/>
<path d="M108.048 241.885C108.234 241.761 108.409 241.638 108.58 241.519C108.74 241.406 108.889 241.298 109.039 241.19" stroke="#222222" stroke-miterlimit="10"/>
<path d="M106.886 242.642C107.088 242.513 107.279 242.389 107.464 242.271" stroke="#222222" stroke-miterlimit="10"/>
<path d="M112.288 255.348C112.376 255.153 112.459 254.952 112.536 254.741" stroke="#222222" stroke-miterlimit="10"/>
<path d="M111.082 257.33C111.18 257.201 111.273 257.072 111.366 256.944C111.464 256.805 111.562 256.661 111.655 256.511C111.753 256.352 111.851 256.192 111.944 256.027" stroke="#222222" stroke-miterlimit="10"/>
<path d="M100.213 277.344C104.285 270.718 101.534 273.024 103.733 267.001C104.878 263.856 106.788 261.874 108.579 260.062C108.759 259.882 108.935 259.701 109.11 259.521C109.244 259.387 109.373 259.254 109.502 259.12C109.73 258.888 109.946 258.656 110.163 258.42C110.277 258.291 110.39 258.167 110.504 258.039" stroke="#222222" stroke-miterlimit="10"/>
<path d="M95.8986 284.798C95.8986 284.798 92.4977 286.785 88.1781 287.115" stroke="#222222" stroke-miterlimit="10"/>
<path d="M103.562 244.094C105.786 241.932 113.579 225.258 113.579 225.258C113.579 225.258 113.992 223.013 117.728 222.267C121.464 221.52 128.937 220.002 128.937 220.002C128.937 220.002 132.343 219.199 135.332 219.616C138.32 220.027 144.631 220.856 144.631 220.856C144.631 220.856 145.86 221.042 146.561 221.762C147.016 222.226 147.248 222.915 146.794 223.924C145.632 226.493 144.471 228.233 139.156 227.981C133.84 227.734 133.51 226.74 133.51 226.74C133.51 226.74 133.009 229.639 125.707 230.056C125.707 230.056 121.888 230.22 121.557 232.789L121.227 235.358" stroke="#222222" stroke-miterlimit="10"/>
<path d="M256.83 254.446C257.568 255.115 258.332 255.748 259.127 256.345L266.125 262.729C271.027 266.415 275.058 271.125 277.927 276.536C278.077 276.814 278.201 277.102 278.299 277.4L282.83 290.739C283.253 291.98 282.892 293.354 281.917 294.229L281.055 295.001C276.565 299.037 270.713 301.236 264.669 301.153C263.322 301.138 262.12 300.299 261.64 299.043L260.665 296.999L257.553 288.875C256.34 285.709 253.491 284.021 250.126 283.568L245.507 282.945C242.555 282.548 239.412 282.116 235.852 280.479C232.291 278.842 229.38 277.977 225.127 277.452C220.648 276.901 216.612 277.838 215.09 278.028L208.959 278.801C206.853 279.068 204.902 277.926 204.515 275.841L204.5 275.748C204.216 274.198 204.902 272.628 206.239 271.789L207.988 270.687C209.134 269.967 210.399 269.442 211.725 269.148L218.186 267.702C223.615 266.265 224.095 264.371 224.493 263.455C224.89 262.538 226.196 254.863 225.22 252.633C225.22 252.633 224.73 251.64 224.312 249.02C223.894 246.399 220.529 242.955 220.529 242.955L221.05 242.981C220.865 242.847 220.772 242.77 220.72 242.796C218.516 243.913 216.199 243.841 215.425 243.975L212.757 244.623C212.571 244.654 212.385 244.675 212.2 244.685C212.158 244.685 212.117 244.685 212.076 244.69C211.895 244.695 211.709 244.695 211.529 244.68C211.513 244.68 211.498 244.68 211.482 244.68C211.307 244.664 211.131 244.639 210.961 244.608C210.935 244.608 210.909 244.597 210.878 244.592C210.693 244.556 210.512 244.505 210.337 244.448C210.326 244.448 210.316 244.443 210.311 244.438C210.125 244.376 209.95 244.304 209.774 244.227C209.593 244.144 209.418 244.047 209.248 243.944L208.917 243.743C208.185 243.29 207.849 242.96 207.426 242.168L206.941 241.014C206.481 239.655 207.281 238.868 208.288 238.538L211.343 237.684C211.689 237.57 214.863 236.639 215.219 236.567C216.292 236.361 216.142 236.294 216.142 236.294L212.865 233.406C212.447 233.143 211.369 232.52 211.25 232.453C210.853 232.232 210.455 232.016 210.053 231.805C210.006 231.779 209.965 231.758 209.919 231.733C209.501 231.516 209.083 231.316 208.659 231.115C208.515 231.048 208.375 230.981 208.231 230.914C207.875 230.749 207.519 230.595 207.158 230.44C207.039 230.389 206.915 230.338 206.796 230.286C206.404 230.126 206.012 229.972 205.614 229.818C205.449 229.756 205.279 229.694 205.114 229.632C203.633 229.092 202.126 228.634 200.593 228.268L195.995 227.166C194.183 226.755 192.764 225.344 192.341 223.537C191.964 221.915 193.296 220.407 194.957 220.582L197.744 220.876C199.623 221.071 201.481 221.375 203.323 221.782C204.025 221.061 205.253 220.876 205.253 220.876C205.253 220.876 207.741 220.551 210.331 220.201C210.331 220.201 210.316 220.011 206.745 217.941L203.277 215.846C200.763 214.394 199.53 211.444 200.278 208.587L200.361 208.263C200.82 206.502 202.895 205.735 204.391 206.775L212.004 212.052L224.895 220.819C227.279 221.303 230.221 221.895 232.156 222.281C235.893 223.027 236.306 225.272 236.306 225.272C236.306 225.272 244.098 241.946 246.323 244.108C246.323 244.108 255.824 253.586 256.83 254.456V254.446Z" fill="#F0D2D0"/>
<path d="M224.889 220.804L211.997 212.037L204.385 206.76C202.888 205.72 200.814 206.492 200.354 208.248L200.272 208.572C199.529 211.434 200.762 214.379 203.27 215.831L206.738 217.926C210.309 219.996 210.325 220.186 210.325 220.186" stroke="#222222" stroke-miterlimit="10"/>
<path d="M220.529 242.945C220.529 242.945 223.894 246.389 224.312 249.01C224.73 251.63 225.221 252.624 225.221 252.624C226.196 254.853 224.89 262.528 224.493 263.445C224.095 264.361 223.616 266.261 218.186 267.692L211.725 269.138C210.399 269.437 209.14 269.957 207.989 270.678L206.239 271.779C204.903 272.618 204.216 274.189 204.5 275.738L204.515 275.831C204.903 277.916 206.848 279.059 208.959 278.791L215.09 278.019C216.612 277.828 220.648 276.891 225.128 277.442C229.38 277.967 232.291 278.827 235.852 280.469C239.413 282.106 242.556 282.539 245.508 282.935L250.127 283.558C253.491 284.011 256.34 285.699 257.553 288.865L260.665 296.989L261.64 299.033C262.12 300.289 263.323 301.123 264.67 301.143C270.713 301.221 276.56 299.022 281.055 294.992L281.917 294.219C282.892 293.344 283.254 291.97 282.83 290.729L278.299 277.391C278.196 277.092 278.072 276.804 277.928 276.526C275.053 271.115 271.028 266.4 266.125 262.719L259.127 256.335C258.332 255.738 257.563 255.105 256.83 254.436L246.323 244.088" stroke="#222222" stroke-miterlimit="10"/>
<path d="M219.332 229.177L222.795 235.463" stroke="#222222" stroke-miterlimit="10"/>
<path d="M216.147 236.274L212.87 233.386C212.452 233.123 212.024 232.876 211.601 232.629C211.487 232.562 211.374 232.5 211.26 232.434C210.863 232.212 210.465 231.996 210.063 231.785C210.016 231.759 209.975 231.739 209.929 231.713C209.511 231.497 209.093 231.296 208.669 231.095C208.525 231.028 208.386 230.961 208.241 230.894C207.885 230.73 207.529 230.575 207.168 230.421C207.049 230.369 206.925 230.318 206.806 230.266C206.414 230.107 206.022 229.952 205.625 229.798C205.459 229.736 205.289 229.674 205.124 229.612C203.643 229.072 202.136 228.614 200.603 228.248L196.005 227.147C194.193 226.735 192.774 225.324 192.351 223.517C191.974 221.896 193.306 220.387 194.968 220.562L197.754 220.856C199.633 221.051 201.496 221.355 203.333 221.762" stroke="#222222" stroke-miterlimit="10"/>
<path d="M240.347 240.809C240.145 240.655 239.949 240.495 239.748 240.33C239.547 240.165 239.361 240.006 239.165 239.831C238.576 239.311 237.952 238.724 237.209 237.993C234.99 235.815 234.515 235.455 231.398 235.455C228.281 235.455 226.722 235.584 222.33 235.434C217.938 235.285 216.297 236.34 215.224 236.546C214.868 236.613 211.694 237.55 211.348 237.664L208.293 238.518C207.287 238.848 206.487 239.635 206.946 240.994L207.431 242.147C207.854 242.945 208.19 243.27 208.922 243.723L209.253 243.923C209.423 244.026 209.599 244.124 209.779 244.207C209.955 244.289 210.135 244.361 210.316 244.418C210.326 244.418 210.337 244.423 210.342 244.428C210.517 244.485 210.703 244.536 210.884 244.572C210.909 244.577 210.935 244.582 210.966 244.588C211.136 244.618 211.312 244.644 211.487 244.66C211.503 244.66 211.518 244.66 211.534 244.66C211.714 244.675 211.895 244.675 212.081 244.67C212.122 244.67 212.163 244.67 212.205 244.665C212.391 244.655 212.576 244.634 212.762 244.603L215.43 243.954C216.204 243.821 218.522 243.893 220.725 242.775C220.957 242.657 222.093 244.809 229.958 244.299C229.958 244.299 232.254 249.54 236.306 251.095C236.306 251.095 236.146 251.506 236.528 252.418" stroke="#222222" stroke-miterlimit="10"/>
<path d="M241.843 241.885C241.657 241.761 241.482 241.638 241.311 241.519C241.151 241.406 241.002 241.298 240.852 241.19" stroke="#222222" stroke-miterlimit="10"/>
<path d="M243 242.642C242.799 242.513 242.608 242.389 242.422 242.271" stroke="#222222" stroke-miterlimit="10"/>
<path d="M237.6 255.348C237.512 255.153 237.43 254.952 237.352 254.741" stroke="#222222" stroke-miterlimit="10"/>
<path d="M238.809 257.33C238.711 257.201 238.618 257.072 238.525 256.944C238.427 256.805 238.329 256.661 238.236 256.511C238.138 256.352 238.04 256.192 237.947 256.027" stroke="#222222" stroke-miterlimit="10"/>
<path d="M249.672 277.344C245.6 270.718 248.351 273.024 246.153 267.001C245.007 263.856 243.097 261.874 241.307 260.062C241.126 259.882 240.95 259.701 240.775 259.521C240.641 259.387 240.512 259.254 240.383 259.12C240.156 258.888 239.939 258.656 239.722 258.42C239.609 258.291 239.495 258.167 239.382 258.039" stroke="#222222" stroke-miterlimit="10"/>
<path d="M253.993 284.798C253.993 284.798 257.394 286.785 261.713 287.115" stroke="#222222" stroke-miterlimit="10"/>
<path d="M246.323 244.094C244.099 241.932 236.306 225.258 236.306 225.258C236.306 225.258 235.893 223.013 232.156 222.267C228.42 221.52 220.947 220.002 220.947 220.002C220.947 220.002 217.541 219.199 214.553 219.616C211.565 220.033 205.253 220.856 205.253 220.856C205.253 220.856 204.025 221.042 203.323 221.762C202.869 222.226 202.637 222.915 203.091 223.924C204.252 226.493 205.413 228.233 210.729 227.981C216.044 227.734 216.375 226.74 216.375 226.74C216.375 226.74 216.875 229.639 224.178 230.056C224.178 230.056 227.997 230.22 228.327 232.789L228.657 235.358" stroke="#222222" stroke-miterlimit="10"/>
<path d="M192.333 224.963C184.236 225.133 177.129 229.133 172.701 235.197C168.02 229.328 160.749 225.627 152.657 225.797C138.893 226.085 127.968 237.452 128.257 251.182C128.788 276.474 174.059 304 174.059 304C174.059 304 218.359 276.803 217.781 249.303C217.492 235.573 206.097 224.675 192.333 224.963Z" fill="#C25542"/>
<path d="M177.069 232.416C176.217 233.4 175.334 234.429 174.338 235.706C173.342 236.983 171.67 239.459 171.67 239.459" stroke="#202121" stroke-linejoin="bevel"/>
<path d="M130.434 248.098C130.336 249.092 130.295 250.101 130.316 251.125C130.852 276.417 176.123 303.939 176.123 303.939C176.123 303.939 220.423 276.742 219.84 249.241C219.551 235.512 208.156 224.613 194.392 224.907C188.339 225.035 182.832 227.306 178.59 230.976" stroke="#202121" stroke-linejoin="bevel"/>
<path d="M131.705 267.696C126.276 266.26 125.796 264.366 125.398 263.449C125.001 262.533 123.695 254.857 124.671 252.628C124.671 252.628 125.161 251.635 125.579 249.014C125.997 246.394 129.362 242.95 129.362 242.95L128.84 242.976C129.026 242.842 129.119 242.765 129.171 242.791C131.374 243.908 133.692 243.836 134.466 243.969L137.134 244.618C137.32 244.649 137.505 244.67 137.691 244.68C137.732 244.68 137.774 244.68 137.815 244.685C137.996 244.69 138.181 244.69 138.362 244.675C138.378 244.675 138.393 244.675 138.409 244.675C138.584 244.659 138.76 244.634 138.93 244.603C138.956 244.603 138.981 244.592 139.012 244.587C139.198 244.551 139.379 244.5 139.554 244.443C139.565 244.443 139.575 244.438 139.58 244.433C139.766 244.371 139.941 244.299 140.117 244.222C140.297 244.139 140.473 244.041 140.643 243.939L140.973 243.738C141.706 243.285 142.042 242.955 142.465 242.162L142.95 241.009C143.409 239.65 142.609 238.863 141.603 238.533L138.548 237.679C138.202 237.565 135.028 236.634 134.672 236.561C133.599 236.356 133.748 236.289 133.748 236.289L128.964 235.444C129.382 235.182 130.089 226.657 134.497 229.179C134.889 229.406 148.41 221.375 146.568 221.782C145.866 221.061 144.638 220.876 144.638 220.876C144.638 220.876 142.15 220.551 139.559 220.201C139.559 220.201 139.575 220.011 143.146 217.941L146.614 215.846C149.128 214.394 150.361 211.444 149.613 208.587L149.53 208.263C149.071 206.502 146.996 205.735 145.499 206.775L137.887 212.052L124.996 220.819C122.611 221.303 119.67 221.895 117.734 222.281C113.998 223.027 113.585 225.272 113.585 225.272C113.585 225.272 105.792 241.946 103.568 244.108C103.568 244.108 94.0671 253.586 93.0607 254.456C92.3227 255.125 91.5589 255.758 90.7642 256.355L83.7661 262.739C78.8634 266.425 74.8328 271.135 71.9634 276.546C71.8137 276.824 71.6899 277.112 71.5918 277.411L67.0606 290.749C66.6375 291.99 66.9987 293.364 67.9741 294.239L68.836 295.012C73.3258 299.048 79.1782 301.246 85.2215 301.164C86.5684 301.148 87.7709 300.309 88.2508 299.053L89.2262 297.009L92.3382 288.886C93.551 285.72 96.3997 284.031 99.7646 283.578L104.383 282.955C107.335 282.559 110.478 282.126 114.039 280.489C117.6 278.852 120.511 277.987 124.763 277.462C129.243 276.911 133.279 277.848 134.801 278.039" fill="#F0D2D0"/>
<path d="M124.995 220.804L137.887 212.037L145.499 206.76C146.995 205.72 149.07 206.492 149.529 208.248L149.612 208.572C150.355 211.434 149.122 214.379 146.614 215.831L143.146 217.926C139.574 219.996 139.559 220.186 139.559 220.186" stroke="#222222" stroke-miterlimit="10"/>
<path d="M140.932 278.798L134.801 278.025C133.279 277.835 129.243 276.898 124.763 277.449C120.511 277.974 117.6 278.834 114.039 280.476C110.478 282.113 107.335 282.545 104.383 282.942L99.7646 283.565C96.3997 284.018 93.551 285.706 92.3382 288.872L89.2262 296.996L88.2508 299.039C87.7709 300.296 86.5684 301.13 85.2215 301.15C79.1782 301.227 73.331 299.029 68.836 294.998L67.9741 294.226C66.9987 293.351 66.6375 291.976 67.0606 290.736L71.5918 277.397C71.695 277.099 71.8189 276.81 71.9634 276.532C74.838 271.122 78.8634 266.406 83.7661 262.726L90.7641 256.342C91.5589 255.745 92.3279 255.112 93.0607 254.442L103.568 244.095" stroke="#222222" stroke-miterlimit="10"/>
<path d="M129.357 242.945C129.357 242.945 125.992 246.389 125.574 249.01C125.156 251.63 124.665 252.624 124.665 252.624C123.69 254.853 124.996 262.528 125.393 263.445C125.791 264.361 126.27 266.261 131.7 267.692" stroke="#222222" stroke-miterlimit="10"/>
<path d="M130.554 229.177L127.091 235.463" stroke="#222222" stroke-miterlimit="10"/>
<path d="M109.545 240.809C109.746 240.655 109.942 240.495 110.144 240.33C110.345 240.165 110.531 240.006 110.727 239.831C111.315 239.311 111.939 238.724 112.683 237.993C114.902 235.815 115.377 235.455 118.494 235.455C121.611 235.455 123.169 235.584 127.561 235.434C131.958 235.285 133.594 236.34 134.668 236.546C135.024 236.613 138.198 237.55 138.543 237.664L141.599 238.518C142.605 238.848 143.405 239.635 142.946 240.994L142.46 242.147C142.037 242.945 141.702 243.27 140.969 243.723L140.639 243.923C140.468 244.026 140.293 244.124 140.112 244.207C139.937 244.289 139.756 244.361 139.576 244.418C139.565 244.418 139.555 244.423 139.55 244.428C139.374 244.485 139.188 244.536 139.008 244.572C138.982 244.577 138.956 244.582 138.925 244.588C138.755 244.618 138.579 244.644 138.404 244.66C138.389 244.66 138.373 244.66 138.358 244.66C138.177 244.675 137.996 244.675 137.811 244.67C137.769 244.67 137.728 244.67 137.687 244.665C137.501 244.655 137.315 244.634 137.129 244.603L134.461 243.954C133.687 243.821 131.37 243.893 129.166 242.775C128.934 242.657 127.799 244.809 119.934 244.299C119.934 244.299 117.637 249.54 113.586 251.095C113.586 251.095 113.746 251.506 113.364 252.418" stroke="#222222" stroke-miterlimit="10"/>
<path d="M108.048 241.885C108.234 241.761 108.409 241.638 108.58 241.519C108.74 241.406 108.889 241.298 109.039 241.19" stroke="#222222" stroke-miterlimit="10"/>
<path d="M106.886 242.642C107.088 242.513 107.279 242.389 107.464 242.271" stroke="#222222" stroke-miterlimit="10"/>
<path d="M112.29 255.348C112.378 255.153 112.461 254.952 112.538 254.741" stroke="#222222" stroke-miterlimit="10"/>
<path d="M111.082 257.33C111.18 257.201 111.273 257.072 111.366 256.944C111.464 256.805 111.562 256.661 111.655 256.511C111.753 256.352 111.851 256.192 111.944 256.027" stroke="#222222" stroke-miterlimit="10"/>
<path d="M100.213 277.344C104.285 270.718 101.534 273.024 103.733 267.001C104.878 263.856 106.788 261.874 108.579 260.062C108.759 259.882 108.935 259.701 109.11 259.521C109.244 259.387 109.373 259.254 109.502 259.12C109.73 258.888 109.946 258.656 110.163 258.42C110.277 258.291 110.39 258.167 110.504 258.039" stroke="#222222" stroke-miterlimit="10"/>
<path d="M95.8986 284.798C95.8986 284.798 92.4977 286.785 88.1781 287.115" stroke="#222222" stroke-miterlimit="10"/>
<path d="M103.564 244.094C105.788 241.932 113.581 225.258 113.581 225.258C113.581 225.258 113.994 223.013 117.73 222.267C121.467 221.52 128.939 220.002 128.939 220.002C128.939 220.002 132.345 219.199 135.334 219.616C138.322 220.027 144.633 220.856 144.633 220.856C144.633 220.856 145.862 221.042 146.563 221.762C147.018 222.226 147.25 222.915 146.796 223.924C145.634 226.493 144.473 228.233 139.158 227.981C133.842 227.734 133.512 226.74 133.512 226.74C133.512 226.74 133.011 229.639 125.709 230.056C125.709 230.056 121.89 230.22 121.559 232.789L121.229 235.358" stroke="#222222" stroke-miterlimit="10"/>
<path d="M218.384 267.696C223.813 266.26 224.293 264.366 224.69 263.449C225.088 262.533 226.393 254.857 225.418 252.628C225.418 252.628 224.928 251.635 224.51 249.014C224.092 246.394 220.727 242.95 220.727 242.95L221.248 242.976C221.062 242.842 220.969 242.765 220.918 242.791C218.714 243.908 216.397 243.836 215.623 243.969L212.955 244.618C212.769 244.649 212.583 244.67 212.397 244.68C212.356 244.68 212.315 244.68 212.273 244.685C212.093 244.69 211.907 244.69 211.726 244.675C211.711 244.675 211.695 244.675 211.68 244.675C211.504 244.659 211.329 244.634 211.159 244.603C211.133 244.603 211.107 244.592 211.076 244.587C210.89 244.551 210.71 244.5 210.534 244.443C210.524 244.443 210.514 244.438 210.508 244.433C210.323 244.371 210.147 244.299 209.972 244.222C209.791 244.139 209.616 244.041 209.445 243.939L209.115 243.738C208.382 243.285 208.047 242.955 207.624 242.162L207.138 241.009C206.679 239.65 207.479 238.863 208.485 238.533L211.541 237.679C211.886 237.565 215.06 236.634 215.416 236.561C216.49 236.356 216.34 236.289 216.34 236.289L221.124 235.444C220.706 235.182 219.999 226.657 215.592 229.179C215.2 229.406 201.678 221.375 203.521 221.782C204.223 221.061 205.451 220.876 205.451 220.876C205.451 220.876 207.938 220.551 210.529 220.201C210.529 220.201 210.514 220.011 206.942 217.941L203.474 215.846C200.961 214.394 199.727 211.444 200.476 208.587L200.558 208.263C201.018 206.502 203.092 205.735 204.589 206.775L212.201 212.052L225.093 220.819C227.477 221.303 230.419 221.895 232.354 222.281C236.09 223.027 236.503 225.272 236.503 225.272C236.503 225.272 244.296 241.946 246.52 244.108C246.52 244.108 256.021 253.586 257.028 254.456C257.766 255.125 258.53 255.758 259.324 256.355L266.322 262.739C271.225 266.425 275.256 271.135 278.125 276.546C278.275 276.824 278.399 277.112 278.497 277.411L283.028 290.749C283.451 291.99 283.09 293.364 282.114 294.239L281.253 295.012C276.763 299.048 270.91 301.246 264.867 301.164C263.52 301.148 262.318 300.309 261.838 299.053L260.862 297.009L257.75 288.886C256.537 285.72 253.689 284.031 250.324 283.578L245.705 282.955C242.753 282.559 239.61 282.126 236.049 280.489C232.488 278.852 229.578 277.987 225.325 277.462C220.845 276.911 216.81 277.848 215.287 278.039" fill="#F0D2D0"/>
<path d="M225.092 220.804L212.201 212.037L204.589 206.76C203.092 205.72 201.017 206.492 200.558 208.248L200.475 208.572C199.732 211.434 200.966 214.379 203.474 215.831L206.942 217.926C210.513 219.996 210.529 220.186 210.529 220.186" stroke="#222222" stroke-miterlimit="10"/>
<path d="M209.157 278.798L215.288 278.025C216.81 277.835 220.846 276.898 225.326 277.449C229.578 277.974 232.489 278.834 236.05 280.476C239.611 282.113 242.754 282.545 245.706 282.942L250.325 283.565C253.689 284.018 256.538 285.706 257.751 288.872L260.863 296.996L261.838 299.039C262.318 300.296 263.521 301.13 264.868 301.15C270.911 301.227 276.758 299.029 281.253 294.998L282.115 294.226C283.091 293.351 283.452 291.976 283.029 290.736L278.497 277.397C278.394 277.099 278.27 276.81 278.126 276.532C275.251 271.122 271.226 266.406 266.323 262.726L259.325 256.342C258.53 255.745 257.761 255.112 257.029 254.442L246.521 244.095" stroke="#222222" stroke-miterlimit="10"/>
<path d="M220.727 242.945C220.727 242.945 224.092 246.389 224.51 249.01C224.928 251.63 225.418 252.624 225.418 252.624C226.394 254.853 225.088 262.528 224.69 263.445C224.293 264.361 223.813 266.261 218.384 267.692" stroke="#222222" stroke-miterlimit="10"/>
<path d="M219.536 229.177L222.999 235.463" stroke="#222222" stroke-miterlimit="10"/>
<path d="M240.544 240.809C240.343 240.655 240.147 240.495 239.946 240.33C239.744 240.165 239.559 240.006 239.362 239.831C238.774 239.311 238.15 238.724 237.406 237.993C235.187 235.815 234.713 235.455 231.595 235.455C228.478 235.455 226.92 235.584 222.528 235.434C218.136 235.285 216.495 236.34 215.421 236.546C215.065 236.613 211.892 237.55 211.546 237.664L208.491 238.518C207.484 238.848 206.684 239.635 207.144 240.994L207.629 242.147C208.052 242.945 208.387 243.27 209.12 243.723L209.45 243.923C209.621 244.026 209.796 244.124 209.977 244.207C210.152 244.289 210.333 244.361 210.514 244.418C210.524 244.418 210.534 244.423 210.539 244.428C210.715 244.485 210.901 244.536 211.081 244.572C211.107 244.577 211.133 244.582 211.164 244.588C211.334 244.618 211.51 244.644 211.685 244.66C211.701 244.66 211.716 244.66 211.732 244.66C211.912 244.675 212.093 244.675 212.279 244.67C212.32 244.67 212.361 244.67 212.402 244.665C212.588 244.655 212.774 244.634 212.96 244.603L215.628 243.954C216.402 243.821 218.719 243.893 220.923 242.775C221.155 242.657 222.291 244.809 230.156 244.299C230.156 244.299 232.452 249.54 236.503 251.095C236.503 251.095 236.343 251.506 236.725 252.418" stroke="#222222" stroke-miterlimit="10"/>
<path d="M242.041 241.885C241.855 241.761 241.679 241.638 241.509 241.519C241.349 241.406 241.2 241.298 241.05 241.19" stroke="#222222" stroke-miterlimit="10"/>
<path d="M243.198 242.642C242.996 242.513 242.805 242.389 242.619 242.271" stroke="#222222" stroke-miterlimit="10"/>
<path d="M237.8 255.348C237.712 255.153 237.629 254.952 237.552 254.741" stroke="#222222" stroke-miterlimit="10"/>
<path d="M239.007 257.33C238.909 257.201 238.816 257.072 238.723 256.944C238.625 256.805 238.527 256.661 238.434 256.511C238.336 256.352 238.238 256.192 238.145 256.027" stroke="#222222" stroke-miterlimit="10"/>
<path d="M249.87 277.344C245.798 270.718 248.549 273.024 246.35 267.001C245.205 263.856 243.295 261.874 241.504 260.062C241.324 259.882 241.148 259.701 240.973 259.521C240.839 259.387 240.709 259.254 240.58 259.12C240.353 258.888 240.137 258.656 239.92 258.42C239.806 258.291 239.693 258.167 239.579 258.039" stroke="#222222" stroke-miterlimit="10"/>
<path d="M254.188 284.798C254.188 284.798 257.589 286.785 261.909 287.115" stroke="#222222" stroke-miterlimit="10"/>
<path d="M246.521 244.094C244.296 241.932 236.503 225.258 236.503 225.258C236.503 225.258 236.091 223.013 232.354 222.267C228.618 221.52 221.145 220.002 221.145 220.002C221.145 220.002 217.739 219.199 214.751 219.616C211.763 220.027 205.451 220.856 205.451 220.856C205.451 220.856 204.223 221.042 203.521 221.762C203.067 222.226 202.834 222.915 203.289 223.924C204.45 226.493 205.611 228.233 210.927 227.981C216.242 227.734 216.572 226.74 216.572 226.74C216.572 226.74 217.073 229.639 224.376 230.056C224.376 230.056 228.195 230.22 228.525 232.789L228.855 235.358" stroke="#222222" stroke-miterlimit="10"/>
</g>
</g>
<defs>
<clipPath id="clip0_1_1002">
<rect x="0.5" width="346" height="335" rx="20" fill="white"/>
</clipPath>
</defs>
</svg>
