<svg width="347" height="335" viewBox="0 0 347 335" fill="none" xmlns="http://www.w3.org/2000/svg">
<g clip-path="url(#clip0_1_1012)">
<mask id="mask0_1_1012" style="mask-type:luminance" maskUnits="userSpaceOnUse" x="0" y="0" width="347" height="335">
<path d="M334.795 0H12.2047C5.74036 0 0.5 5.22736 0.5 11.6756V323.324C0.5 329.773 5.74036 335 12.2047 335H334.795C341.26 335 346.5 329.773 346.5 323.324V11.6756C346.5 5.22736 341.26 0 334.795 0Z" fill="white"/>
</mask>
<g mask="url(#mask0_1_1012)">
<path d="M165.364 35.7147L181.414 46.9527L198.45 35.1227L181.905 40.4096L165.364 35.7147Z" fill="#C2C3C3"/>
<path d="M267.505 271.344C267.505 271.344 270.287 265.444 284.216 283.627C301.659 306.402 336.634 297.161 331.592 290.597C325.75 282.989 320.883 274.531 312.543 262.994C301.52 247.746 301.912 247.061 290.951 231.025C280.33 215.488 279.669 211.9 273.755 203.458C267.841 195.015 257.813 185.105 250.542 185.429L178.043 180.58L102.061 187.087C92.8176 187.88 84.5861 193.228 80.122 201.337C80.122 201.337 68.8354 242.345 64.2732 257.995C59.7111 273.645 66.0073 292.451 67.0446 295.55C68.0819 298.649 70.7758 314.35 80.2201 317.362C89.6643 320.373 98.6286 316.991 98.6286 316.991C98.6286 316.991 104.6 316.198 107.681 304.075C110.762 291.946 105.188 264.41 105.188 264.41C105.188 264.41 112.506 294.572 113.832 326.494C115.159 358.417 99.9756 411.503 99.9756 411.503C99.9756 411.503 135.384 417.042 176.515 417.042C217.647 417.042 250.376 409.634 250.376 409.634C250.376 409.634 238.383 365.748 239.42 333.65C240.457 301.552 247.951 268.605 247.951 268.605" fill="#B5A0CD"/>
<path d="M267.505 271.344C267.505 271.344 270.287 265.444 284.216 283.627C301.659 306.402 336.634 297.161 331.592 290.597C325.75 282.989 320.883 274.531 312.543 262.994C301.52 247.746 301.912 247.061 290.951 231.025C280.33 215.488 279.669 211.9 273.755 203.458C267.841 195.015 257.813 185.105 250.542 185.429L178.043 180.58L102.061 187.087C92.8176 187.88 84.5861 193.228 80.122 201.337C80.122 201.337 68.8354 242.345 64.2732 257.995C59.7111 273.645 66.0073 292.451 67.0446 295.55C68.0819 298.649 70.7758 314.35 80.2201 317.362C89.6643 320.373 98.6286 316.991 98.6286 316.991C98.6286 316.991 104.6 316.198 107.681 304.075C110.762 291.946 105.188 264.41 105.188 264.41C105.188 264.41 112.506 294.572 113.832 326.494C115.159 358.417 99.9756 411.503 99.9756 411.503C99.9756 411.503 135.384 417.042 176.515 417.042C217.647 417.042 250.376 409.634 250.376 409.634C250.376 409.634 238.383 365.748 239.42 333.65C240.457 301.552 247.951 268.605 247.951 268.605" stroke="#010101" stroke-miterlimit="10"/>
<path d="M250.542 185.156L216.455 183.215" stroke="#010101" stroke-miterlimit="10"/>
<path d="M233.619 88.06C233.619 59.9675 213.91 36.6317 187.822 31.3447C177.707 29.2958 163.732 31.113 154.788 34.7784C134.233 43.2056 120.041 64.0962 120.041 88.06C120.041 119.983 145.468 145.856 176.83 145.856C208.192 145.856 233.619 119.978 233.619 88.06Z" fill="#EEE0CA"/>
<path d="M217.705 183.221C236.908 183.221 241.991 184.673 241.991 184.673C241.991 184.673 235.582 100.118 237.089 100.22C238.595 100.323 240.216 100.339 241.976 100.241C237.496 96.3801 235.659 84.1794 231.195 71.7264C230.663 69.8525 229.982 68.1022 229.136 66.4703C228.429 64.8178 227.66 63.1859 226.819 61.5849C223.64 55.5463 218.644 53.4202 214.453 53.8474C205.67 50.2181 193.341 48.5347 176.692 48.5347C154.304 48.5347 140.319 56.7252 131.932 64.9259C133.362 59.4691 135.106 50.2233 127.236 60.1177C124.826 63.1447 123.04 70.1099 121.714 79.052C121.028 80.5089 120.733 81.3789 120.733 81.3789C120.733 81.3789 119.913 86.5526 119.758 91.4329C116.662 122.321 116.053 185.878 116.053 185.878C116.053 185.878 216.889 183.216 217.699 183.216L217.705 183.221Z" fill="#EEE0CA"/>
<path d="M176.169 194.634C176.169 194.634 153.384 189.373 153.384 176.817V102.851C153.384 90.2997 163.582 80.1222 176.169 80.1222C188.756 80.1222 198.954 90.2946 198.954 102.851V174.284C198.954 186.835 176.169 194.634 176.169 194.634Z" fill="#F0D2CE"/>
<path d="M183.296 198.237C203.665 195.154 207.902 196.024 208.418 183.215C197.121 182.587 199.098 180.096 198.804 161.064C198.706 154.742 153.44 161.759 153.239 167.205C152.811 178.752 164.149 178.757 145.694 180.909C145.782 194.309 148.935 196.343 170.151 198.618L183.296 198.242V198.237Z" fill="#F0D2CE"/>
<path d="M156.034 141.079V149.511C156.034 149.511 160.833 166.118 172.641 169.907C184.454 173.696 195.947 172.126 199.364 172.625C198.941 171.349 198.946 170.638 198.946 164.517C198.946 159.112 198.992 134.582 198.992 134.582L156.029 141.079H156.034Z" fill="#E0A69E"/>
<path d="M142.469 134.154C144.172 142.164 161.089 162.669 175.008 162.622C192.163 162.566 209.596 140.887 211.165 132.234C212.873 122.813 213.745 105.773 213.771 87.7654C213.791 72.8157 202.907 45.7424 188.535 45.7424C174.162 45.7424 141.179 73.0319 140.359 87.7654C140.359 106.355 138.759 116.671 142.469 134.154Z" fill="#F0D2CE"/>
<path d="M188.535 45.7424C174.095 45.7424 141.179 73.0319 140.359 87.7654C140.359 106.355 138.759 116.671 142.469 134.154C143.032 136.805 145.261 140.826 148.502 145.021" stroke="#010101" stroke-miterlimit="10"/>
<path d="M219.963 111.803C217.945 105.723 210.431 105.775 204.336 107.787C198.241 109.8 194.938 116.359 196.956 122.439C198.974 128.518 205.549 131.813 211.644 129.8C217.739 127.787 221.981 117.883 219.963 111.803Z" fill="#F0D2CE"/>
<path d="M215.788 107.355C217.703 108.132 219.215 109.543 219.963 111.803C221.945 117.769 218.384 126.294 211.979 129.661" stroke="#010101" stroke-miterlimit="10"/>
<path d="M184.528 160.492C198.163 154.912 210.002 139.18 211.282 132.117L212.221 126.835" stroke="#010101" stroke-linejoin="round"/>
<path d="M168.989 129.605C171.647 130.758 174.573 131.397 177.644 131.397C180.715 131.397 183.636 130.758 186.299 129.605" stroke="#010101" stroke-linejoin="round"/>
<path d="M192.23 142.539C187.059 146.529 182.873 149.134 177.785 149.129C171.876 149.119 165.26 145.989 162.586 143.646L162.514 143.554C167.092 137.597 186.801 138.539 192.235 142.539H192.23Z" fill="#F0D2CE"/>
<path d="M189.102 138.618C186.341 140.667 180.21 141.692 177.305 141.692H176.262C173.352 141.692 167.303 139.452 165.832 138.443" stroke="#010101" stroke-linejoin="round"/>
<path d="M170.369 145.347C172.356 146.5 174.539 147.138 176.836 147.138C179.132 147.138 181.315 146.5 183.302 145.347" stroke="#010101" stroke-linejoin="round"/>
<path d="M158.519 110.156C160.426 110.156 161.971 108.614 161.971 106.712C161.971 104.81 160.426 103.268 158.519 103.268C156.612 103.268 155.066 104.81 155.066 106.712C155.066 108.614 156.612 110.156 158.519 110.156Z" fill="#010101"/>
<path d="M148.714 96.0181C153.895 94.8752 159.681 94.8907 165.724 95.9254" stroke="#010101" stroke-linejoin="round"/>
<path d="M195.812 110.156C197.719 110.156 199.264 108.614 199.264 106.712C199.264 104.81 197.719 103.268 195.812 103.268C193.905 103.268 192.359 104.81 192.359 106.712C192.359 108.614 193.905 110.156 195.812 110.156Z" fill="#010101"/>
<path d="M205.621 96.0181C200.44 94.8752 194.655 94.8907 188.611 95.9254" stroke="#010101" stroke-linejoin="round"/>
<path d="M213.492 107.916C213.136 72.5439 185.831 44.4771 185.831 44.4771L183.08 38.2995L221.817 53.2802C221.817 53.2802 220.119 91.4885 213.487 107.916H213.492Z" fill="#EEE0C9"/>
<path d="M213.492 107.916C213.291 87.7981 204.368 70.0427 196.715 58.47" stroke="#010101" stroke-miterlimit="10"/>
<path d="M224.268 125.982C228.866 110.708 221.729 96.4116 212.171 93.0551" stroke="#010101" stroke-miterlimit="10"/>
<path d="M117.8 133.487L116.422 163.7" stroke="#010101" stroke-linejoin="round"/>
<path d="M118.623 113.46L120.042 88.06C120.042 64.0962 134.234 43.2056 154.789 34.7784C163.733 31.113 177.708 29.2958 187.824 31.3447C208.425 35.5197 225.048 50.9534 231.128 71.0923L231.427 72.0601C235.886 84.5079 237.512 96.1784 241.991 100.039C240.231 100.132 235.391 100.122 232.908 99.3702" stroke="#010101" stroke-linejoin="round"/>
<path d="M150.805 223.847L137.815 332.124C137.815 332.124 114.917 305.36 102.98 283.286C91.0429 261.221 72.0925 230.411 72.0925 230.411C72.0925 230.411 78.2854 208.403 79.8801 201.335C81.4851 194.272 85.206 188.31 92.7563 186.926C100.307 185.546 128.257 185.798 128.257 185.798C129.011 213.299 141.35 218.57 150.8 223.847H150.805Z" fill="#654785"/>
<path d="M150.806 223.848C141.356 218.566 129.017 213.294 128.263 185.799C128.263 185.799 100.313 185.542 92.7623 186.926C85.2121 188.306 81.4912 194.273 79.8861 201.336C78.2863 208.409 72.0985 230.411 72.0985 230.411C72.0985 230.411 91.0489 261.222 102.986 283.286C114.923 305.361 137.821 332.125 137.821 332.125L150.811 223.848H150.806Z" stroke="#010101" stroke-miterlimit="10"/>
<path d="M238.191 122.412C237.051 122.345 240.312 159.73 240.312 159.73" stroke="#010101" stroke-linejoin="round"/>
<path d="M153.24 151.01C153.24 151.01 161.761 212.95 149.612 218.453C149.612 218.453 141.304 220.425 133.026 220.25C133.026 220.25 136.943 215.025 138.346 211.535C138.346 211.535 121.171 219.195 114.271 220.549C114.271 220.549 115.974 192.961 116.062 186.134C116.15 179.308 153.24 151.01 153.24 151.01Z" fill="#EEE0CA"/>
<path d="M117.114 219.819C120.313 219.221 132.209 213.003 138.072 211.885C136.353 215.288 134.583 218.449 133.024 220.004C141.101 220.148 145.441 219.649 150.803 217.703" stroke="#010101" stroke-linejoin="round"/>
<path d="M140.44 205.624C140.368 205.871 140.29 206.124 140.213 206.366C140.187 206.448 140.161 206.525 140.135 206.608C137.932 213.496 134.319 218.7 133.024 219.992" stroke="#010101" stroke-linejoin="round"/>
<path d="M140.873 204.018C140.836 204.167 140.702 204.682 140.671 204.79" stroke="#010101" stroke-linejoin="round"/>
<path d="M141.261 202.309C141.22 202.52 141.174 202.731 141.127 202.937" stroke="#010101" stroke-linejoin="round"/>
<path d="M131.93 152.828C131.93 152.828 137.22 182.166 132.431 199.35" stroke="#010101" stroke-miterlimit="10"/>
<path d="M153.904 156.399C153.904 156.399 156.867 189.079 155.778 196.389" stroke="#010101" stroke-linejoin="round"/>
<path d="M194.299 35.1227C194.299 35.1227 189.314 41.7584 188.535 43.416" stroke="#010101" stroke-linejoin="round"/>
<path d="M196.111 221.249C205.556 215.972 217.895 210.701 218.649 183.195C218.649 183.195 236.149 182.716 241.996 183.432C247.843 184.147 261.731 184.878 266.525 191.818C270.644 197.784 273.756 203.447 273.756 203.447C273.756 203.447 257.164 260.559 245.227 282.628C233.29 304.698 209.096 329.526 209.096 329.526L196.111 221.249Z" fill="#654785" stroke="#010101" stroke-miterlimit="10"/>
<path d="M65.2996 166.927C65.9241 173.357 66.7653 197.259 66.7653 197.259L67.8181 209.074C67.8181 209.074 68.138 214.515 67.1885 235.107C66.2389 255.699 66.1253 268.719 68.6025 283.462C71.0797 298.206 70.0114 290.793 75.1206 309.877C80.2298 328.96 102.695 325.779 104.387 316.44C106.106 306.953 105.729 299.148 105.729 299.148C105.729 299.148 106.694 277.501 101.946 258.191C97.1985 238.886 88.4767 212.899 88.4767 212.899C88.4767 212.899 84.3532 195.195 85.2357 183.947C85.7828 177.007 64.6803 160.492 65.2996 166.922V166.927Z" fill="#F0D2D0"/>
<path d="M65.3004 166.928C65.9248 173.358 66.766 197.26 66.766 197.26L67.8188 209.075C67.8188 209.075 68.1388 214.516 67.1892 235.108C66.2396 255.7 66.1261 268.719 68.6033 283.463C71.0804 298.207 70.9669 292.596 75.1213 309.878C79.2758 327.159 102.406 325.723 104.388 316.441C106.194 307.973 105.73 299.149 105.73 299.149C105.73 299.149 106.695 277.502 101.947 258.192C97.1992 238.887 88.4775 212.9 88.4775 212.9C88.4775 212.9 85.3242 198.712 85.2365 189.806" stroke="#010101" stroke-miterlimit="10"/>
<path d="M310.395 272.365L261.28 260.88C259.525 260.751 252.811 254.543 252.052 252.957C252.052 252.957 250.716 246.759 240.642 239.552L235.595 234.316C233.401 232.041 233.241 229.42 232.225 226.429L230.16 220.35C229.814 219.33 228.566 218.949 227.709 219.598L227.637 219.649C225.227 221.467 223.843 224.314 223.9 227.31C223.911 227.768 223.916 228.061 223.916 228.061C223.978 231.752 224.323 234.821 225.288 238.471L227.724 247.32L227.131 247.33L214.136 248.447C211.236 248.488 209.429 249.621 209.249 252.03L209.202 252.622C210.198 257.446 210.105 258.079 210.105 258.079L209.047 260.02C207.881 262.156 207.721 264.7 208.609 266.965L209.135 268.303C209.594 269.472 209.687 270.754 209.404 271.974L209.022 273.611C208.738 274.831 208.877 276.107 209.419 277.235L210.276 279.031C210.611 279.737 210.869 280.473 211.045 281.23L211.323 282.46C212.154 286.1 215.086 288.895 218.77 289.559L241.271 291.69C243.542 292.097 245.885 291.696 247.888 290.553L250.468 289.08C252.099 288.149 253.967 287.726 255.835 287.865C255.835 287.865 294.128 299.737 309.177 303.428C311.979 304.118 312.913 303.33 315.091 303.073C317.269 302.815 318.601 302.589 320.061 302.676C322.151 302.805 322.827 303.001 325.201 302.547C331.993 301.25 332.638 294.62 332.638 294.62C333.902 288.828 330.295 283.721 327.42 281.544C324.773 279.536 322.611 278.723 322.611 278.723C321.016 277.729 312.206 272.983 310.395 272.355V272.365Z" fill="#F0D2D0"/>
<path d="M253.539 270.665C252.254 272.57 253.875 268.575 253.715 260.797C253.632 256.884 252.058 252.951 252.058 252.951C252.817 254.537 259.526 260.745 261.286 260.874L312.553 273.018C305.668 273.27 254.824 268.766 253.544 270.66L253.539 270.665Z" fill="#F0D2D0"/>
<path d="M210.106 258.084C210.106 258.084 211.551 259.876 211.603 260.859C211.659 262.048 211.649 263.232 211.871 264.406C212.268 266.537 213.393 268.401 212.81 270.609C212.516 271.726 212.046 272.787 211.861 273.929C211.696 274.933 211.757 275.906 211.938 276.9C212.145 278.022 212.501 279.114 212.635 280.251C212.759 281.307 212.666 282.372 212.64 283.433C212.609 284.735 213.641 285.914 214.049 287.186C212.717 285.94 211.752 284.313 211.329 282.46L211.05 281.229C210.875 280.467 210.622 279.731 210.282 279.031L209.425 277.235C208.888 276.107 208.744 274.83 209.027 273.61L209.409 271.973C209.693 270.748 209.6 269.471 209.141 268.303L208.615 266.964C207.722 264.699 207.882 262.156 209.053 260.02L210.111 258.079L210.106 258.084Z" fill="#F0D2D0"/>
<path d="M252.497 277.507C253.106 276.179 253.963 287.149 259.304 288.127L255.841 287.87C253.968 287.731 252.1 288.153 250.474 289.085L247.893 290.557C247.31 290.887 246.701 291.154 246.077 291.36C248.079 290.454 249.24 288.997 250.525 286.192C251.955 283.067 252.203 278.145 252.497 277.507Z" fill="#F0D2D0"/>
<path d="M309.729 272.159L261.28 260.88C259.525 260.751 252.811 254.543 252.052 252.957C252.052 252.957 250.716 246.759 240.642 239.552L235.595 234.316C233.401 232.041 233.241 229.42 232.225 226.429L230.16 220.35C229.814 219.33 228.566 218.949 227.709 219.598L227.637 219.649C225.227 221.467 223.843 224.314 223.9 227.31C223.911 227.768 223.916 228.061 223.916 228.061C223.978 231.752 224.236 234.507 225.288 238.471L227.724 247.32L227.131 247.33L214.136 248.447C211.236 248.488 209.429 249.621 209.249 252.03L209.202 252.622C209.342 255.176 210.554 257.256 210.105 258.079C209.656 258.903 209.047 260.02 209.047 260.02C207.881 262.156 207.721 264.7 208.609 266.965L209.135 268.303C209.594 269.472 209.687 270.754 209.404 271.974L209.022 273.611C208.738 274.831 208.877 276.107 209.419 277.235L210.276 279.031C210.611 279.737 210.869 280.473 211.045 281.23L211.323 282.46C212.154 286.1 215.086 288.895 218.77 289.559L241.271 291.69C243.542 292.097 245.885 291.696 247.888 290.553L250.468 289.08C252.099 288.149 253.967 287.726 255.835 287.865C255.835 287.865 304.61 302.733 308.883 303.371C313.156 304.01 316.991 302.254 319.948 302.671C333.598 304.596 336.338 290.3 328.386 282.517C325.403 279.598 324.974 280.107 321.775 278.254C318.575 276.401 314.111 273.837 309.729 272.149V272.159Z" stroke="#222222" stroke-miterlimit="10"/>
<path d="M253.715 260.797C253.632 256.884 252.058 252.951 252.058 252.951C252.817 254.537 254.365 255.597 256.125 255.726" stroke="#222222" stroke-miterlimit="10"/>
<path d="M214.049 287.192C212.717 285.946 211.752 284.319 211.329 282.466L211.05 281.235C210.875 280.473 210.622 279.737 210.282 279.037L209.425 277.241C208.888 276.113 208.744 274.836 209.027 273.616L209.409 271.979C209.693 270.754 209.6 269.477 209.141 268.309L208.615 266.97C207.722 264.705 207.882 262.162 209.053 260.026L210.111 258.085" stroke="#222222" stroke-miterlimit="10"/>
<path d="M259.056 288.935L255.841 287.87C253.968 287.731 252.1 288.153 250.474 289.085L247.893 290.557C247.31 290.886 246.701 291.154 246.077 291.36C248.079 290.454 249.24 288.997 250.526 286.191" stroke="#222222" stroke-miterlimit="10"/>
<path d="M75.0076 179.005C70.4248 176.586 67.127 179.139 64.0099 175.005L58.6066 169.111C58.1008 168.441 57.5641 167.793 57.0016 167.175C56.2636 166.331 48.2386 158.321 48.2386 158.321C46.4116 156.447 32.2917 149.883 32.2917 149.883C32.2917 149.883 30.3874 149.533 29.7578 146.387C29.4326 144.756 28.9269 142.279 28.5192 140.272L21.0928 129.409L16.6287 122.995C15.7514 121.734 16.4016 119.983 17.8879 119.597L18.1615 119.525C20.5819 118.897 23.0745 119.937 24.308 122.053L26.0833 124.977C27.8328 127.989 27.9979 127.999 27.9979 127.999C28.2921 125.816 28.5656 123.721 28.5656 123.721C28.5656 123.721 28.7204 122.686 29.3294 122.094C28.9836 120.545 28.7308 118.974 28.5605 117.394L28.3127 115.047C28.1631 113.651 29.443 112.524 30.8157 112.843C32.3485 113.198 33.5406 114.393 33.8864 115.922L34.8205 119.793C35.1301 121.085 35.5224 122.357 35.9765 123.603C36.0281 123.742 36.0797 123.886 36.1365 124.025C36.2655 124.359 36.3945 124.689 36.5339 125.018C36.5752 125.121 36.6216 125.224 36.6629 125.322C36.7919 125.626 36.9261 125.929 37.0654 126.228C37.1222 126.346 37.179 126.47 37.2357 126.588C37.4061 126.944 37.5764 127.299 37.757 127.649C37.7776 127.685 37.7983 127.726 37.8189 127.762C37.9944 128.102 38.1802 128.436 38.366 128.771C38.4227 128.869 38.4743 128.962 38.5311 129.059C38.7375 129.42 38.9491 129.78 39.171 130.13L41.6173 132.889C41.6173 132.889 41.674 133.013 41.8495 132.112C41.9063 131.814 42.6959 129.142 42.7939 128.848L43.5164 126.274C43.7951 125.425 44.4609 124.751 45.6117 125.142L46.5871 125.554C47.2632 125.909 47.5367 126.192 47.9237 126.81L48.0941 127.088C48.1818 127.232 48.2644 127.376 48.3366 127.53C48.4037 127.68 48.4656 127.829 48.5172 127.983C48.5172 127.994 48.5224 127.999 48.5276 128.009C48.5792 128.158 48.6153 128.313 48.6514 128.467C48.6514 128.488 48.6617 128.514 48.6617 128.534C48.6875 128.678 48.7082 128.823 48.7237 128.972C48.7237 128.982 48.7237 128.998 48.7237 129.008C48.734 129.162 48.734 129.312 48.7288 129.466C48.7288 129.502 48.7288 129.533 48.7237 129.569C48.7133 129.723 48.6979 129.883 48.6721 130.037L48.125 132.287C48.0115 132.936 48.0734 134.892 47.129 136.745C47.1083 136.787 47.1754 136.864 47.289 137.023L47.2683 136.581C47.2683 136.581 50.1842 139.417 52.4033 139.767C54.6224 140.117 55.4637 140.529 55.4637 140.529C57.3525 141.353 63.8499 140.251 64.6292 139.916C65.4085 139.582 67.0135 139.175 68.2263 134.604L69.4494 129.157C69.7023 128.04 70.1409 126.98 70.7551 126.012L71.6892 124.539C72.4014 123.412 73.7277 122.835 75.0437 123.072L75.1211 123.088C76.8861 123.412 77.8512 125.054 77.6293 126.83L76.9738 131.994C76.8138 133.276 76.0191 136.678 76.4836 140.452C76.9274 144.035 77.6602 146.49 79.0485 149.487C80.4367 152.488 80.798 155.134 81.1386 157.62L81.665 161.512C82.0469 164.349 84.7099 167.015 84.7099 171.777L85.2672 184.421" fill="#F0D2D0"/>
<path d="M28.5192 140.266L21.0928 129.403L16.6287 122.989C15.7514 121.728 16.4016 119.977 17.8879 119.591L18.1615 119.519C20.5819 118.891 23.0745 119.931 24.308 122.047L26.0833 124.971C27.8328 127.983 27.9979 127.993 27.9979 127.993" stroke="#222222" stroke-miterlimit="10"/>
<path d="M75.0074 179.004C70.4246 176.585 67.1269 179.138 64.0098 175.004L58.6064 169.11C58.1007 168.441 57.564 167.792 57.0014 167.174L48.2384 158.32" stroke="#222222" stroke-miterlimit="10"/>
<path d="M47.2681 136.591C47.2681 136.591 50.1839 139.427 52.4031 139.777C54.6222 140.127 55.4634 140.539 55.4634 140.539C57.3523 141.363 63.8497 140.261 64.629 139.927C65.4083 139.592 67.0133 139.185 68.2261 134.614L69.4492 129.167C69.7021 128.05 70.1407 126.99 70.7549 126.022L71.689 124.55C72.4011 123.422 73.7275 122.846 75.0435 123.083L75.1209 123.098C76.8859 123.422 77.8509 125.064 77.629 126.841L76.9736 132.004C76.8136 133.286 76.0189 136.689 76.4833 140.462C76.9272 144.045 77.66 146.501 79.0482 149.497C80.4365 152.498 80.7977 155.144 81.1384 157.631L81.6648 161.523C81.8247 162.707 82.1705 163.813 82.7072 164.781" stroke="#222222" stroke-miterlimit="10"/>
<path d="M35.6063 135.582L40.9271 138.501" stroke="#222222" stroke-miterlimit="10"/>
<path d="M41.6176 132.9L39.1714 130.14C38.9494 129.785 38.7379 129.43 38.5314 129.069C38.4747 128.972 38.423 128.879 38.3663 128.781C38.1805 128.447 37.9947 128.112 37.8192 127.772C37.7986 127.736 37.7779 127.695 37.7573 127.659C37.5767 127.309 37.4012 126.954 37.2361 126.598C37.1793 126.48 37.1225 126.356 37.0658 126.238C36.9264 125.939 36.7922 125.636 36.6632 125.332C36.6219 125.229 36.5755 125.126 36.5342 125.028C36.3949 124.699 36.2658 124.369 36.1368 124.035C36.0852 123.896 36.0284 123.752 35.9768 123.613C35.5227 122.367 35.1305 121.095 34.8208 119.803L33.8867 115.932C33.5358 114.403 32.3436 113.208 30.816 112.853C29.4433 112.534 28.1686 113.662 28.3131 115.057L28.5608 117.404C28.7311 118.985 28.984 120.555 29.3297 122.104" stroke="#222222" stroke-miterlimit="10"/>
<path d="M45.4568 153.285C45.3226 153.115 45.1885 152.95 45.0543 152.78C44.9201 152.61 44.7808 152.456 44.6311 152.291C44.1924 151.792 43.6918 151.267 43.0777 150.644C41.2353 148.775 40.9308 148.374 40.9308 145.748C40.9308 143.123 41.0392 141.81 40.9102 138.109C40.7811 134.407 41.6791 133.022 41.8494 132.122C41.9062 131.823 42.6958 129.151 42.7939 128.858L43.5164 126.284C43.795 125.434 44.4608 124.76 45.6116 125.151L46.587 125.563C47.2631 125.918 47.5366 126.201 47.9237 126.819L48.094 127.097C48.1817 127.241 48.2643 127.385 48.3365 127.54C48.4036 127.689 48.4656 127.838 48.5172 127.993C48.5172 128.003 48.5223 128.008 48.5275 128.019C48.5791 128.168 48.6152 128.322 48.6514 128.477C48.6514 128.497 48.6617 128.523 48.6617 128.544C48.6875 128.688 48.7081 128.832 48.7236 128.981C48.7236 128.992 48.7236 129.007 48.7236 129.017C48.7339 129.172 48.7339 129.321 48.7288 129.475C48.7288 129.511 48.7288 129.542 48.7236 129.578C48.7133 129.733 48.6978 129.892 48.672 130.047L48.125 132.297C48.0114 132.945 48.0733 134.901 47.1289 136.755C47.0309 136.95 48.8526 137.908 48.4191 144.533C48.4191 144.533 52.8522 146.469 54.1734 149.882C54.1734 149.882 54.5243 149.748 55.2933 150.067" stroke="#222222" stroke-miterlimit="10"/>
<path d="M46.364 154.547C46.2608 154.392 46.1575 154.243 46.0542 154.099C45.9612 153.965 45.8683 153.836 45.7753 153.707" stroke="#222222" stroke-miterlimit="10"/>
<path d="M47.0042 155.519C46.8957 155.349 46.7924 155.19 46.6891 155.03" stroke="#222222" stroke-miterlimit="10"/>
<path d="M57.7668 150.976C57.6015 150.899 57.4311 150.832 57.2555 150.77" stroke="#222222" stroke-miterlimit="10"/>
<path d="M59.4421 151.993C59.3337 151.911 59.2253 151.834 59.117 151.751C58.9983 151.669 58.8744 151.587 58.7505 151.509C58.6164 151.427 58.4822 151.345 58.3428 151.267" stroke="#222222" stroke-miterlimit="10"/>
<path d="M76.3908 161.147C70.781 157.719 72.7318 160.035 67.6329 158.182C64.9699 157.214 63.2927 155.608 61.7547 154.1C61.5999 153.951 61.4503 153.801 61.3006 153.652C61.1871 153.539 61.0735 153.431 60.96 153.322C60.7639 153.132 60.5678 152.947 60.3665 152.767C60.2581 152.669 60.1497 152.576 60.0414 152.483" stroke="#222222" stroke-miterlimit="10"/>
<path d="M82.7012 164.782C82.7012 164.782 84.3837 167.65 84.6623 171.289C84.6623 171.289 85.4261 182.275 85.23 189.807" stroke="#222222" stroke-miterlimit="10"/>
<path d="M48.2384 158.32C46.4115 156.446 32.2916 149.882 32.2916 149.882C32.2916 149.882 30.3873 149.532 29.7576 146.387C29.128 143.242 27.843 136.946 27.843 136.946C27.843 136.946 27.1669 134.078 27.5127 131.561C27.8585 129.043 28.5655 123.726 28.5655 123.726C28.5655 123.726 28.7203 122.691 29.3293 122.099C29.7215 121.718 30.3047 121.522 31.1562 121.903C33.3289 122.881 34.8049 123.859 34.5933 128.338C34.3817 132.817 33.5405 133.095 33.5405 133.095C33.5405 133.095 35.997 133.517 36.348 139.669C36.348 139.669 36.4873 142.886 38.66 143.164L40.8327 143.442" stroke="#222222" stroke-miterlimit="10"/>
</g>
<path d="M82.3208 68.5724C81.9955 68.5518 74.3319 68.1395 68.8114 72.68C63.2908 77.2154 62.2167 84.8019 62.1754 85.1214L61.9275 86.9665L63.7918 87.0799C63.8486 87.0799 64.1068 87.0953 64.5354 87.0953C66.6372 87.0953 72.7103 86.7449 77.3013 82.9723C82.8218 78.4369 83.8959 70.8504 83.9372 70.5309L84.1851 68.6858L82.3208 68.5724Z" fill="#88AE84"/>
<path d="M53.0407 54.0183C49.6117 47.7513 42.3509 45.2774 42.041 45.1743L40.2697 44.5868L39.8101 46.3907C39.7326 46.705 37.889 54.1369 41.3129 60.404C44.7419 66.671 52.0027 69.1449 52.3126 69.248L54.0839 69.8355L54.5435 68.0317C54.6209 67.7173 56.4646 60.2854 53.0407 54.0183Z" fill="#88AE84"/>
<path d="M51.9972 79.9429C51.8268 79.6697 47.7212 73.1965 40.8167 71.3308C33.9122 69.4702 27.0955 72.9852 26.8115 73.1398L25.159 74.0108L26.1453 75.593C26.3157 75.8662 30.4212 82.3394 37.3258 84.2051C38.7666 84.5916 40.2022 84.7462 41.5759 84.7462C46.7917 84.7462 51.109 82.5146 51.3362 82.3961L52.9887 81.5302L52.0024 79.948L51.9972 79.9429Z" fill="#88AE84"/>
<path d="M82.3208 68.5724C81.9955 68.5518 74.3319 68.1395 68.8114 72.68C63.2908 77.2154 62.2167 84.8019 62.1754 85.1214L61.9275 86.9665L63.7918 87.0799C63.8486 87.0799 64.1068 87.0953 64.5354 87.0953C66.6372 87.0953 72.7103 86.7449 77.3013 82.9723C82.8218 78.4369 83.8959 70.8504 83.9372 70.5309L84.1851 68.6858L82.3208 68.5724Z" stroke="#144659" stroke-miterlimit="10"/>
<path d="M55.6525 99.6554C59.1848 86.977 57.9145 72.6802 47.3589 57.2238" stroke="#144659" stroke-miterlimit="10"/>
<path d="M53.0407 54.0183C49.6117 47.7513 42.3509 45.2774 42.041 45.1743L40.2697 44.5868L39.8101 46.3907C39.7326 46.705 37.889 54.1369 41.3129 60.404C44.7419 66.671 52.0027 69.1449 52.3126 69.248L54.0839 69.8355L54.5435 68.0317C54.6209 67.7173 56.4646 60.2854 53.0407 54.0183Z" stroke="#144659" stroke-miterlimit="10"/>
<path d="M51.9972 79.9429C51.8268 79.6697 47.7212 73.1965 40.8167 71.3308C33.9122 69.4702 27.0955 72.9852 26.8115 73.1398L25.159 74.0108L26.1453 75.593C26.3157 75.8662 30.4212 82.3394 37.3258 84.2051C38.7666 84.5916 40.2022 84.7462 41.5759 84.7462C46.7917 84.7462 51.109 82.5146 51.3362 82.3961L52.9887 81.5302L52.0024 79.948L51.9972 79.9429Z" stroke="#144659" stroke-miterlimit="10"/>
<path d="M43.6834 78.8196C51.471 80.5513 57.1723 81.4532 57.4253 85.7876" stroke="#144659" stroke-miterlimit="10"/>
<path d="M56.955 93.6203C57.301 88.9046 73.6766 77.2775 73.6766 77.2775" stroke="#144659" stroke-miterlimit="10"/>
<path d="M70.6296 101.166C70.0461 101.166 69.509 101.357 69.0701 101.676C68.8841 100.017 67.4898 98.7178 65.7805 98.7178C64.6857 98.7178 63.72 99.2538 63.1106 100.073C62.5787 99.6043 61.8867 99.3157 61.1224 99.3157C60.2341 99.3157 59.444 99.7022 58.8863 100.31C58.6487 100.12 58.3905 99.9702 58.1013 99.862C58.1375 99.6816 58.1581 99.4909 58.1581 99.3002C58.1581 97.7077 56.8671 96.4192 55.2714 96.4192C53.6756 96.4192 52.3846 97.7077 52.3846 99.3002C52.3846 99.4651 52.4052 99.63 52.4362 99.7898C52.0334 99.594 51.5893 99.4703 51.109 99.4703C50.2466 99.4703 49.4668 99.8362 48.9194 100.413C48.3514 99.3363 47.2307 98.5941 45.9294 98.5941C44.2407 98.5941 42.8567 99.8259 42.5933 101.434C42.1647 100.924 41.5295 100.594 40.8117 100.594C39.9906 100.594 39.2676 101.022 38.8493 101.661C38.6324 101.594 38.4052 101.547 38.1676 101.547C36.8766 101.547 35.8282 102.594 35.8282 103.882C35.8282 105.17 36.8766 106.217 38.1676 106.217C38.9887 106.217 39.7117 105.789 40.13 105.15C40.3469 105.217 40.5741 105.263 40.8117 105.263C41.8393 105.263 42.6966 104.598 43.0168 103.681C43.6055 104.686 44.6848 105.366 45.9345 105.366C46.9984 105.366 47.9382 104.866 48.5579 104.104C49.095 104.954 50.0349 105.521 51.1142 105.521C52.7874 105.521 55.5038 105.433 57.0995 105.433C57.8896 105.433 58.6074 105.114 59.129 104.598C59.6609 105.073 60.3581 105.366 61.1275 105.366C62.0313 105.366 62.8317 104.964 63.3843 104.341C63.9885 104.969 64.8354 105.366 65.7805 105.366C66.6532 105.366 67.4433 105.021 68.0424 104.47C68.3264 105.639 69.3747 106.51 70.6348 106.51C72.1118 106.51 73.3098 105.315 73.3098 103.841C73.3098 102.367 72.1118 101.171 70.6348 101.171L70.6296 101.166Z" fill="#36728A" stroke="#144659" stroke-miterlimit="10"/>
<path d="M71.3693 113.334L68.2502 146.541H41.2208L38.1017 113.334" fill="#36728A"/>
<path d="M65.2037 113.355H36.3204C35.1792 113.355 34.2238 112.495 34.105 111.361L33.2219 102.96H76.255L75.3823 111.361C75.2635 112.495 74.3081 113.355 73.1617 113.355H69.2472H65.2037Z" fill="#36728A"/>
<path d="M71.3693 113.334L68.2502 146.541H41.2208L38.1017 113.334" stroke="#111E2C" stroke-miterlimit="10"/>
<path d="M39.7744 113.355H36.3196C35.1783 113.355 34.2177 112.495 34.099 111.361L33.2159 102.96H76.249L75.3762 111.356C75.2575 112.49 74.2969 113.355 73.1556 113.355H69.5511" stroke="#144659" stroke-miterlimit="10"/>
<path d="M47.2979 136.747L47.3185 137.19C47.2049 137.03 47.1378 136.953 47.1584 136.912C48.1035 135.051 48.0415 133.098 48.1551 132.449L48.7025 130.196C48.7283 130.042 48.7438 129.882 48.7542 129.727C48.7542 129.691 48.7542 129.66 48.7593 129.624C48.7645 129.47 48.7593 129.315 48.7542 129.166C48.7542 129.155 48.7542 129.14 48.7542 129.13C48.7438 128.98 48.7232 128.836 48.6922 128.692C48.6922 128.671 48.6819 128.645 48.6819 128.625C48.6509 128.47 48.6096 128.315 48.5579 128.166C48.5579 128.156 48.5528 128.15 48.5476 128.14C48.496 127.985 48.434 127.836 48.3669 127.687C48.2946 127.532 48.2119 127.388 48.1241 127.243L47.9537 126.965C47.5664 126.347 47.2927 126.068 46.6162 125.707L45.6402 125.295C44.4886 124.909 43.8224 125.579 43.5435 126.429L42.8205 129.006C42.7224 129.3 41.9323 131.975 41.8755 132.273C41.6999 133.175 41.6431 133.052 41.6431 133.052L40.9201 135.495C40.6981 135.139 41.0699 143.973 40.8633 143.612C40.8065 143.514 38.1521 143.261 38.1005 143.169C37.9146 142.834 36.8714 141.844 36.8507 141.803C36.67 141.452 36.1639 137.335 35.9935 136.974C35.9367 136.855 35.632 135.273 34.8006 134.175C34.5992 133.912 34.1189 133.407 33.5663 133.242C33.4579 133.211 34.0724 132.603 34.0311 132.5C33.8917 132.17 34.7902 129.382 34.6663 129.052C34.6147 128.913 34.5733 125.646 34.5217 125.506C34.0672 124.259 34.1086 124.316 33.494 123.548L31.6866 122.275C31.4697 122.172 31.9964 122.187 30.4626 121.832C29.089 121.512 28.5881 123.862 28.5881 123.862C28.5881 123.862 28.3092 125.96 28.02 128.145C28.02 128.145 27.6688 130.753 27.4364 133.052L27.7928 136.747C28.2317 138.896 28.5467 140.427 28.5467 140.427C28.9547 142.437 29.4608 144.916 29.7861 146.55C30.4162 149.699 32.3218 150.049 32.3218 150.049C32.3218 150.049 46.4509 156.625 48.2791 158.496C48.2791 158.496 56.3094 166.51 57.0478 167.361C57.6107 167.984 58.1478 168.629 58.6539 169.299L64.0608 175.2C67.1851 179.333 56.454 153.368 56.3042 150.621L54.2179 150.049L53.0301 148.08L51.2949 146.421L49.2499 145.086L48.4598 144.689L48.5166 142.097L48.2016 139.308L47.773 137.968L47.3237 137.18" fill="#F0D2D0"/>
<path d="M75.0553 179.209C70.4695 176.787 67.1696 179.343 64.0504 175.205L58.6435 169.303C58.1374 168.633 57.6003 167.984 57.0374 167.366L48.2687 158.501" stroke="#222222" stroke-miterlimit="10"/>
<path d="M35.6265 135.737L40.9508 138.66" stroke="#222222" stroke-miterlimit="10"/>
<path d="M45.4841 153.46C45.3498 153.29 45.2155 153.125 45.0813 152.955C44.947 152.785 44.8076 152.63 44.6578 152.465C44.2189 151.965 43.7179 151.44 43.1034 150.816C41.2598 148.945 40.9551 148.543 40.9551 145.915C40.9551 143.286 41.0635 141.972 40.9344 138.266C40.8053 134.561 41.7039 133.174 41.8743 132.273C41.9311 131.974 42.7212 129.299 42.8194 129.005L43.5424 126.428C43.8212 125.578 44.4874 124.903 45.639 125.294L46.615 125.707C47.2915 126.062 47.5652 126.346 47.9526 126.964L48.123 127.242C48.2108 127.387 48.2934 127.531 48.3657 127.686C48.4328 127.835 48.4948 127.985 48.5464 128.139C48.5464 128.149 48.5516 128.155 48.5568 128.165C48.6084 128.314 48.6446 128.469 48.6807 128.624C48.6807 128.644 48.691 128.67 48.691 128.691C48.7169 128.835 48.7375 128.979 48.753 129.129C48.753 129.139 48.753 129.154 48.753 129.165C48.7633 129.319 48.7633 129.469 48.7582 129.623C48.7582 129.66 48.7582 129.69 48.753 129.727C48.7427 129.881 48.7272 130.041 48.7014 130.196L48.154 132.448C48.0404 133.097 48.1023 135.056 47.1573 136.911C47.0592 137.107 48.8821 138.065 48.4483 144.698C48.4483 144.698 52.8844 146.636 54.2064 150.053C54.2064 150.053 54.5575 149.919 55.327 150.239" stroke="#222222" stroke-miterlimit="10"/>
<path d="M46.3943 154.723C46.291 154.568 46.1877 154.419 46.0845 154.274C45.9915 154.14 45.8985 154.011 45.8056 153.883" stroke="#222222" stroke-miterlimit="10"/>
<path d="M47.0344 155.697C46.926 155.527 46.8227 155.367 46.7194 155.207" stroke="#222222" stroke-miterlimit="10"/>
<path d="M57.8011 151.147C57.6358 151.07 57.4654 151.003 57.2898 150.941" stroke="#222222" stroke-miterlimit="10"/>
<path d="M59.4791 152.167C59.3707 152.085 59.2622 152.007 59.1538 151.925C59.035 151.843 58.9111 151.76 58.7871 151.683C58.6529 151.6 58.5186 151.518 58.3792 151.441" stroke="#222222" stroke-miterlimit="10"/>
<path d="M76.4398 161.33C70.8264 157.898 72.7784 160.217 67.6762 158.362C65.0115 157.393 63.3331 155.785 61.7942 154.275C61.6393 154.125 61.4895 153.976 61.3398 153.826C61.2262 153.713 61.1125 153.605 60.9989 153.497C60.8027 153.306 60.6065 153.12 60.4051 152.94C60.2966 152.842 60.1882 152.749 60.0797 152.657" stroke="#222222" stroke-miterlimit="10"/>
<path d="M82.7537 164.969C82.7537 164.969 84.4372 167.84 84.7161 171.484C84.7161 171.484 85.4803 182.482 85.2841 190.022" stroke="#222222" stroke-miterlimit="10"/>
<path d="M48.2683 158.501C46.4401 156.625 32.3109 150.053 32.3109 150.053C32.3109 150.053 30.4054 149.703 29.7753 146.554C29.1453 143.405 27.8594 137.102 27.8594 137.102C27.8594 137.102 27.1829 134.231 27.5289 131.711C27.8749 129.191 28.5824 123.867 28.5824 123.867C28.5824 123.867 28.7373 122.831 29.3467 122.238C29.7392 121.857 30.3227 121.661 31.1748 122.042C33.3489 123.022 34.8259 124.001 34.6142 128.485C34.4024 132.968 33.5607 133.247 33.5607 133.247C33.5607 133.247 36.0188 133.669 36.37 139.828C36.37 139.828 36.5094 143.049 38.6835 143.328L40.8577 143.606" stroke="#222222" stroke-miterlimit="10"/>
</g>
<defs>
<clipPath id="clip0_1_1012">
<rect x="0.5" width="346" height="335" rx="20" fill="white"/>
</clipPath>
</defs>
</svg>
