<svg width="169" height="68" viewBox="0 0 169 68" fill="none" xmlns="http://www.w3.org/2000/svg">
<rect width="168.5" height="67.4599" transform="translate(0.25)" fill="white"/>
<path d="M49.064 17.1333L49.0656 18.1333L49.0638 18.1333L49.064 17.1333ZM84.4175 37.1407L83.5904 37.7028L83.5818 37.6901L83.5735 37.6771L84.4175 37.1407ZM142.936 50.3403L132.907 56.063L132.965 44.5161L142.936 50.3403ZM108.691 50.1664L108.691 49.1664L108.696 49.1664L108.691 50.1664ZM49.0623 16.1333C57.4452 16.1198 63.2294 15.8442 68.5295 18.3429C73.8569 20.8546 78.5787 26.0893 85.2615 36.6043L83.5735 37.6771C76.9027 27.1808 72.4409 22.3981 67.6766 20.152C62.8849 17.8929 57.6691 18.1194 49.0656 18.1333L49.0623 16.1333ZM85.2445 36.5785C89.7094 43.1476 96.6118 49.1664 108.691 49.1664V51.1664C95.77 51.1664 88.314 44.6524 83.5904 37.7028L85.2445 36.5785ZM108.696 49.1664L133.941 49.2946L133.931 51.2946L108.686 51.1664L108.696 49.1664ZM49.0638 18.1333L26.0638 18.1294L26.0641 16.1294L49.0641 16.1333L49.0638 18.1333Z" fill="black"/>
<path d="M49.064 50.3267L49.0656 49.3267L49.0638 49.3267L49.064 50.3267ZM84.4175 30.3193L83.5904 29.7572L83.5818 29.7699L83.5735 29.7829L84.4175 30.3193ZM142.936 17.1196L132.907 11.397L132.965 22.9438L142.936 17.1196ZM108.691 17.2935L108.691 18.2935L108.696 18.2935L108.691 17.2935ZM49.0623 51.3267C57.4452 51.3402 63.2294 51.6157 68.5295 49.117C73.8569 46.6054 78.5787 41.3707 85.2615 30.8557L83.5735 29.7829C76.9027 40.2791 72.4409 45.0619 67.6766 47.308C62.8849 49.567 57.6691 49.3406 49.0656 49.3267L49.0623 51.3267ZM85.2445 30.8814C89.7094 24.3124 96.6118 18.2935 108.691 18.2935V16.2935C95.77 16.2935 88.314 22.8075 83.5904 29.7572L85.2445 30.8814ZM108.696 18.2935L133.941 18.1653L133.931 16.1653L108.686 16.2935L108.696 18.2935ZM49.0638 49.3267L26.0638 49.3306L26.0641 51.3306L49.0641 51.3267L49.0638 49.3267Z" fill="black"/>
</svg>
