<svg width="170" height="68" viewBox="0 0 170 68" fill="none" xmlns="http://www.w3.org/2000/svg">
<rect width="168.5" height="67.4599" transform="translate(1.25)" fill="white"/>
<path d="M56.75 43.4599L55.9165 44.0124L56.7574 45.2811L57.588 44.0056L56.75 43.4599ZM112.75 43.4599L111.912 44.0056L112.838 45.4273L113.633 43.9288L112.75 43.4599ZM169.75 38.4581L166.087 27.5074L158.435 36.1547L169.75 38.4581ZM2.09689 43.9917C6.53572 36.9224 14.53 28.5716 24.0706 26.1543C28.804 24.955 33.9408 25.2076 39.2845 27.8295C44.6471 30.4607 50.281 35.5098 55.9165 44.0124L57.5835 42.9074C51.819 34.21 45.9404 28.8675 40.1655 26.034C34.3717 23.1913 28.746 22.9065 23.5794 24.2155C13.32 26.8149 4.96428 35.664 0.40311 42.9281L2.09689 43.9917ZM57.588 44.0056C62.1924 36.9349 70.4116 28.576 80.0925 26.1558C84.8966 24.9548 90.078 25.2093 95.4222 27.8303C100.784 30.4601 106.377 35.5063 111.912 44.0056L113.588 42.9142C107.923 34.2142 102.082 28.8692 96.3028 26.0346C90.5053 23.1913 84.8367 22.9083 79.6075 24.2155C69.2218 26.8118 60.641 35.6522 55.912 42.9142L57.588 44.0056ZM113.633 43.9288C116.858 37.8548 123.017 30.503 131.351 27.0215C139.598 23.5769 150.14 23.8492 162.403 33.289L163.623 31.7041C150.856 21.8763 139.561 21.4248 130.58 25.176C121.688 28.8904 115.231 36.6541 111.867 42.991L113.633 43.9288Z" fill="black"/>
</svg>
