<svg width="170" height="146" viewBox="0 0 170 146" fill="none" xmlns="http://www.w3.org/2000/svg">
<path d="M17.3548 39L11.8828 22.2H16.0828L19.8028 34.56L23.5228 22.2H27.7228L22.2508 39H17.3548ZM33.0066 35.304H39.7266V39H29.1666V22.2H39.6066V25.896H33.0066V28.68H39.0066V32.328H33.0066V35.304ZM50.7251 39L47.5571 33.48H45.7331V39H41.8931V22.2H48.6131C51.8051 22.2 54.3731 24.768 54.3731 27.96C54.3731 30.024 53.1251 31.896 51.2771 32.832L54.8531 39H50.7251ZM45.7331 25.8V30.12H48.6131C49.6691 30.12 50.5331 29.184 50.5331 27.96C50.5331 26.736 49.6691 25.8 48.6131 25.8H45.7331ZM66.0188 22.2H69.8588V39H66.9788L60.4988 29.88V39H56.6588V22.2H59.5388L66.0188 31.32V22.2ZM72.7369 22.2H76.5769V39H72.7369V22.2ZM83.3034 35.304H90.0234V39H79.4634V22.2H89.9034V25.896H83.3034V28.68H89.3034V32.328H83.3034V35.304ZM98.55 39.336C94.854 39.336 92.07 37.176 92.07 33.576V22.2H95.91V33.24C95.91 34.512 96.51 35.592 98.55 35.592C100.59 35.592 101.19 34.512 101.19 33.24V22.2H105.03V33.576C105.03 37.176 102.246 39.336 98.55 39.336ZM111.231 39L106.599 22.2H110.631L113.535 33.96L116.775 22.2H119.895L123.135 33.96L126.039 22.2H130.071L125.439 39H121.071L118.335 29.088L115.599 39H111.231ZM135.593 35.304H142.312V39H131.753V22.2H142.193V25.896H135.593V28.68H141.593V32.328H135.593V35.304ZM153.839 22.2H157.679V39H154.799L148.319 29.88V39H144.479V22.2H147.359L153.839 31.32V22.2Z" fill="#337189"/>
<rect width="168.5" height="67.4599" transform="translate(1.25 78)" fill="white"/>
<path d="M170 127.069L166.381 116.104L158.694 124.721L170 127.069ZM1.76529 127.932C19.7656 106.531 50.0699 97.2038 80.9559 97.1712C111.836 97.1387 143.04 106.402 162.669 121.867L163.907 120.296C143.839 104.485 112.161 95.1383 80.9538 95.1712C49.7519 95.2041 18.7611 104.618 0.234706 126.645L1.76529 127.932Z" fill="black"/>
</svg>
