<svg width="169" height="146" viewBox="0 0 169 146" fill="none" xmlns="http://www.w3.org/2000/svg">
<path d="M29.8193 39.336C24.9953 39.336 21.0833 35.544 21.0833 30.6C21.0833 25.656 24.9953 21.864 29.8193 21.864C34.6433 21.864 38.5553 25.656 38.5553 30.6C38.5553 35.544 34.6433 39.336 29.8193 39.336ZM29.8193 35.592C32.5553 35.592 34.7153 33.6 34.7153 30.6C34.7153 27.6 32.5553 25.608 29.8193 25.608C27.0833 25.608 24.9233 27.6 24.9233 30.6C24.9233 33.6 27.0833 35.592 29.8193 35.592ZM57.5173 22.2V39H53.6773V29.232L49.3333 36.36H48.9013L44.5573 29.232V39H40.7173V22.2H44.5573L49.1173 29.664L53.6773 22.2H57.5173ZM67.1248 22.2C71.7568 22.2 75.2848 25.848 75.2848 30.6C75.2848 35.352 71.7568 39 67.1248 39H60.4048V22.2H67.1248ZM67.1248 35.304C69.7648 35.304 71.5888 33.48 71.5888 30.6C71.5888 27.72 69.7648 25.896 67.1248 25.896H64.2448V35.304H67.1248ZM81.2839 35.304H88.0039V39H77.4439V22.2H87.8839V25.896H81.2839V28.68H87.2839V32.328H81.2839V35.304ZM99.5305 22.2H103.37V39H100.49L94.0105 29.88V39H90.1705V22.2H93.0505L99.5305 31.32V22.2ZM119.833 39H115.465L110.089 31.224V39H106.249V22.2H110.089V29.496L115.225 22.2H119.593L113.929 30.384L119.833 39ZM125.112 35.304H131.832V39H121.272V22.2H131.712V25.896H125.112V28.68H131.112V32.328H125.112V35.304ZM143.359 22.2H147.199V39H144.319L137.839 29.88V39H133.999V22.2H136.879L143.359 31.32V22.2Z" fill="#337189"/>
<rect width="168.5" height="67.4599" transform="translate(0.25 78)" fill="white"/>
<path d="M49.064 95.1333L49.0656 96.1333L49.0638 96.1333L49.064 95.1333ZM84.4175 115.141L83.5904 115.703L83.5818 115.69L83.5735 115.677L84.4175 115.141ZM142.936 128.34L132.907 134.063L132.965 122.516L142.936 128.34ZM108.691 128.166L108.691 127.166L108.696 127.166L108.691 128.166ZM49.0623 94.1333C57.4452 94.1198 63.2294 93.8442 68.5295 96.3429C73.8569 98.8546 78.5787 104.089 85.2615 114.604L83.5735 115.677C76.9027 105.181 72.4409 100.398 67.6766 98.152C62.8849 95.8929 57.6691 96.1194 49.0656 96.1333L49.0623 94.1333ZM85.2445 114.579C89.7094 121.148 96.6118 127.166 108.691 127.166V129.166C95.77 129.166 88.314 122.652 83.5904 115.703L85.2445 114.579ZM108.696 127.166L133.941 127.295L133.931 129.295L108.686 129.166L108.696 127.166ZM49.0638 96.1333L26.0638 96.1294L26.0641 94.1294L49.0641 94.1333L49.0638 96.1333Z" fill="black"/>
<path d="M49.064 128.327L49.0656 127.327L49.0638 127.327L49.064 128.327ZM84.4175 108.319L83.5904 107.757L83.5818 107.77L83.5735 107.783L84.4175 108.319ZM142.936 95.1196L132.907 89.397L132.965 100.944L142.936 95.1196ZM108.691 95.2935L108.691 96.2935L108.696 96.2935L108.691 95.2935ZM49.0623 129.327C57.4452 129.34 63.2294 129.616 68.5295 127.117C73.8569 124.605 78.5787 119.371 85.2615 108.856L83.5735 107.783C76.9027 118.279 72.4409 123.062 67.6766 125.308C62.8849 127.567 57.6691 127.341 49.0656 127.327L49.0623 129.327ZM85.2445 108.881C89.7094 102.312 96.6118 96.2935 108.691 96.2935V94.2935C95.77 94.2935 88.314 100.808 83.5904 107.757L85.2445 108.881ZM108.696 96.2935L133.941 96.1653L133.931 94.1653L108.686 94.2935L108.696 96.2935ZM49.0638 127.327L26.0638 127.331L26.0641 129.331L49.0641 129.327L49.0638 127.327Z" fill="black"/>
</svg>
