<svg width="170" height="146" viewBox="0 0 170 146" fill="none" xmlns="http://www.w3.org/2000/svg">
<path d="M21.1165 39L15.6445 22.2H19.8445L23.5645 34.56L27.2845 22.2H31.4845L26.0125 39H21.1165ZM36.7683 35.304H43.4883V39H32.9283V22.2H43.3683V25.896H36.7683V28.68H42.7683V32.328H36.7683V35.304ZM54.4868 39L51.3188 33.48H49.4948V39H45.6548V22.2H52.3748C55.5668 22.2 58.1348 24.768 58.1348 27.96C58.1348 30.024 56.8868 31.896 55.0388 32.832L58.6148 39H54.4868ZM49.4948 25.8V30.12H52.3748C53.4308 30.12 54.2948 29.184 54.2948 27.96C54.2948 26.736 53.4308 25.8 52.3748 25.8H49.4948ZM70.8365 30.288C72.0845 31.08 72.9005 32.376 72.9005 34.08C72.9005 37.056 70.4765 39 67.4765 39H60.4205V22.2H66.9965C69.9245 22.2 72.3005 24.096 72.3005 27C72.3005 28.392 71.7485 29.496 70.8365 30.288ZM66.9965 25.8H64.2605V28.776H66.9965C67.8605 28.776 68.4605 28.152 68.4605 27.288C68.4605 26.424 67.8845 25.8 66.9965 25.8ZM67.4765 35.4C68.4365 35.4 69.0605 34.728 69.0605 33.792C69.0605 32.856 68.4365 32.184 67.4765 32.184H64.2605V35.4H67.4765ZM78.6511 35.304H85.3711V39H74.8111V22.2H85.2511V25.896H78.6511V28.68H84.6511V32.328H78.6511V35.304ZM98.8177 22.2V25.896H94.4977V39H90.6577V25.896H86.3377V22.2H98.8177ZM104.339 35.304H111.059V39H100.499V22.2H110.939V25.896H104.339V28.68H110.339V32.328H104.339V35.304ZM122.057 39L118.889 33.48H117.065V39H113.225V22.2H119.945C123.137 22.2 125.705 24.768 125.705 27.96C125.705 30.024 124.457 31.896 122.609 32.832L126.185 39H122.057ZM117.065 25.8V30.12H119.945C121.001 30.12 121.865 29.184 121.865 27.96C121.865 26.736 121.001 25.8 119.945 25.8H117.065ZM131.831 35.304H138.551V39H127.991V22.2H138.431V25.896H131.831V28.68H137.831V32.328H131.831V35.304ZM150.077 22.2H153.917V39H151.037L144.557 29.88V39H140.717V22.2H143.597L150.077 31.32V22.2Z" fill="#337189"/>
<rect width="168.5" height="67.4599" transform="translate(1.25 78)" fill="white"/>
<path d="M56.75 121.46L55.9165 122.012L56.7574 123.281L57.588 122.006L56.75 121.46ZM112.75 121.46L111.912 122.006L112.838 123.427L113.633 121.929L112.75 121.46ZM169.75 116.458L166.087 105.507L158.435 114.155L169.75 116.458ZM2.09689 121.992C6.53572 114.922 14.53 106.572 24.0706 104.154C28.804 102.955 33.9408 103.208 39.2845 105.83C44.6471 108.461 50.281 113.51 55.9165 122.012L57.5835 120.907C51.819 112.21 45.9404 106.867 40.1655 104.034C34.3717 101.191 28.746 100.906 23.5794 102.216C13.32 104.815 4.96428 113.664 0.40311 120.928L2.09689 121.992ZM57.588 122.006C62.1924 114.935 70.4116 106.576 80.0925 104.156C84.8966 102.955 90.078 103.209 95.4222 105.83C100.784 108.46 106.377 113.506 111.912 122.006L113.588 120.914C107.923 112.214 102.082 106.869 96.3028 104.035C90.5053 101.191 84.8367 100.908 79.6075 102.216C69.2218 104.812 60.641 113.652 55.912 120.914L57.588 122.006ZM113.633 121.929C116.858 115.855 123.017 108.503 131.351 105.022C139.598 101.577 150.14 101.849 162.403 111.289L163.623 109.704C150.856 99.8763 139.561 99.4248 130.58 103.176C121.688 106.89 115.231 114.654 111.867 120.991L113.633 121.929Z" fill="black"/>
</svg>
