<svg width="979" height="552" viewBox="0 0 979 552" fill="none" xmlns="http://www.w3.org/2000/svg">
<g clip-path="url(#clip0_1_884)">
<path d="M444.862 710.708C639.262 710.708 796.854 552.933 796.854 358.307C796.854 163.681 639.262 5.90576 444.862 5.90576C250.463 5.90576 92.8714 163.681 92.8714 358.307C92.8714 552.933 250.463 710.708 444.862 710.708Z" fill="#82B1C4"/>
<path d="M446.698 142.945L473.615 161.849L502.198 141.953L474.448 150.853L446.698 142.945Z" fill="#C3C2C2"/>
<path d="M552.652 449.604C573.2 428.942 580.155 408.416 580.537 386.109C581.235 344.943 559.562 297.716 559.562 232.508C559.562 184.605 534.805 164.529 465.712 164.529C390.52 164.529 371.863 228.565 371.863 228.565C371.863 228.565 367.294 303.732 367.294 312.294C367.294 367.7 315.351 360.152 315.351 425.112C315.351 438.879 360.363 446.698 360.363 449.604H552.675H552.652Z" fill="#464545"/>
<path d="M585.809 514.607C585.809 514.607 581.195 560.234 598.637 572.874C606.019 578.237 657.084 552.438 657.084 552.438L615.786 400.572C612.68 388.765 601.743 380.721 589.544 381.262L467.946 386.782L323.683 399.175C318.687 399.603 314.253 402.51 311.823 406.903L207.261 597.592L271.537 615.302L345.716 527.878L358.59 651.894L570.797 644.616L586.911 527.292" fill="#6F5A86"/>
<path d="M589.561 381.262C601.759 380.721 612.697 388.765 615.803 400.572L622.984 426.938" stroke="#010101" stroke-miterlimit="10"/>
<path d="M559.786 231.043C559.786 184.446 527.22 145.736 484.099 136.971C467.377 133.569 444.286 136.588 429.5 142.672C395.516 156.642 372.065 191.296 372.065 231.043C372.065 283.993 414.084 326.916 465.915 326.916C517.746 326.916 559.764 283.993 559.764 231.043" fill="#464545"/>
<path d="M579.914 371.059C576.47 334.355 560.424 292.13 559.591 236.881C559.703 234.943 559.771 233.005 559.771 231.045C559.771 184.449 527.205 145.739 484.084 136.974" stroke="#010101" stroke-miterlimit="10"/>
<path d="M464.84 410.443C464.84 410.443 426.625 401.588 426.625 380.453V255.941C426.625 234.806 443.73 217.682 464.84 217.682C485.951 217.682 503.055 234.806 503.055 255.941V376.172C503.055 397.307 464.84 410.421 464.84 410.421" fill="#D8A486"/>
<path d="M350.281 397.055C371.279 410.281 415.953 418.28 458.669 415.711C501.385 413.143 540.947 402.482 560.685 382.203C559.807 382.203 537.89 382.972 537.034 382.995C510.433 383.806 500.755 387.456 502.758 353.928C503.388 343.316 426.666 355.1 426.328 364.271C425.608 383.716 426.013 389.191 395.045 392.819C393.47 392.999 351.992 396.874 350.236 397.055" fill="#D8A486"/>
<path d="M368.38 405.351C391.876 413.44 425.859 417.676 458.673 415.716C495.357 413.508 530.241 404.923 551.87 389.714" stroke="#010101" stroke-miterlimit="10"/>
<path d="M431.055 320.289V334.485C431.055 334.485 439.112 362.447 458.917 368.823C478.723 375.2 498.01 372.564 503.749 373.397C503.029 371.257 503.051 370.04 503.051 359.743C503.051 350.64 503.119 309.361 503.119 309.361L431.055 320.289Z" fill="#AD6B55"/>
<path d="M408.303 308.641C411.162 322.115 439.541 356.634 462.88 356.567C491.642 356.477 520.877 319.997 523.511 305.419C526.369 289.557 527.832 260.873 527.877 230.568C527.922 205.399 509.647 159.84 485.543 159.84C461.44 159.84 406.12 205.782 404.747 230.568C404.747 261.865 402.069 279.237 408.281 308.641" fill="#D8A486"/>
<path d="M538.271 271.014C534.895 260.784 522.292 260.874 512.074 264.254C501.856 267.634 496.32 278.674 499.696 288.904C503.072 299.134 514.1 304.676 524.34 301.297C534.557 297.917 541.669 281.243 538.293 271.014" fill="#D8A486"/>
<path d="M531.279 263.534C534.497 264.841 537.018 267.207 538.278 271.015C541.609 281.064 535.622 295.417 524.887 301.073" stroke="#010101" stroke-miterlimit="10"/>
<path d="M450.487 300.984C455.124 302.921 460.232 304.003 465.589 304.003C470.945 304.003 476.054 302.921 480.69 300.984M408.514 308.442C407.974 305.896 407.524 303.44 407.119 301.051L406.241 294.675M478.867 352.965C501.733 343.569 521.583 317.094 523.744 305.197L525.319 296.319" stroke="#010101" stroke-linejoin="round"/>
<path d="M493.337 318.222C483.93 325.657 476.323 330.547 467.073 330.524C456.338 330.524 444.297 324.666 439.436 320.295L439.301 320.114C447.605 308.984 483.435 310.741 493.337 318.222Z" fill="#B0675D"/>
<path d="M451.761 327.48C456.059 329.418 460.763 330.499 465.714 330.499C470.666 330.499 475.392 329.418 479.668 327.48M492.024 319.346C483.111 321.058 474.447 320.495 468.168 320.495H465.579C459.3 320.495 450.636 321.036 441.723 319.346" stroke="#010101" stroke-linejoin="round"/>
<path d="M432.018 272.594C433.211 270.25 436.069 269.326 438.409 270.521C440.75 271.715 441.673 274.576 440.48 276.92C439.287 279.263 436.429 280.187 434.088 278.993C431.748 277.798 430.825 274.937 432.018 272.594Z" fill="#010101"/>
<path d="M492.496 272.594C493.689 270.25 496.547 269.326 498.887 270.521C501.228 271.715 502.151 274.576 500.958 276.92C499.765 279.263 496.907 280.187 494.566 278.993C492.226 277.798 491.303 274.937 492.496 272.594Z" fill="#010101"/>
<path d="M418.778 244.451C427.465 242.535 437.165 242.558 447.315 244.293" stroke="#010101" stroke-linejoin="round"/>
<path d="M455.927 260.967C455.927 260.967 460.226 257.813 466.392 257.813C472.559 257.813 476.452 260.967 476.452 260.967M405.852 266.713C405.852 254.546 414.696 248.913 429.055 248.913C443.414 248.913 457.885 254.703 457.885 269.529C457.885 279.624 447.465 292.985 431.868 292.985C416.272 292.985 405.852 281.336 405.852 266.735V266.713ZM526.528 266.713C526.528 254.546 517.683 248.913 503.324 248.913C488.966 248.913 474.494 254.703 474.494 269.529C474.494 279.624 484.915 292.985 500.511 292.985C516.108 292.985 526.528 281.336 526.528 266.735V266.713Z" stroke="#67293D" stroke-miterlimit="10"/>
<path d="M514.239 244.451C505.552 242.535 495.852 242.558 485.702 244.293" stroke="#010101" stroke-linejoin="round"/>
<path d="M404.505 264.483C405.113 203.872 496.216 170.164 496.239 170.164L493.313 146.911L390.529 172.53C390.529 172.53 393.387 236.836 404.505 264.505" fill="#464545"/>
<path d="M527.425 264.481C526.817 204.929 481.04 157.702 481.04 157.702L476.427 147.292L541.401 172.505C541.401 172.505 538.543 236.812 527.425 264.481" fill="#464545"/>
<path d="M429.524 142.672C396.531 156.259 373.44 189.336 372.157 227.663C371.977 228.226 371.865 228.541 371.865 228.541C371.865 228.541 366.778 298.503 362.615 325.993C358.451 353.482 300.656 375.946 307.453 422.317M388.024 266.598C389.397 201.526 491.641 164.325 491.641 164.303M404.475 264.48C405.083 203.869 496.187 170.161 496.209 170.161M527.402 264.48C526.997 224.26 505.977 189.674 492.383 171.445" stroke="#010101" stroke-miterlimit="10"/>
<path d="M583.26 551.203L585.066 538.099L587.774 551.203M426.628 353.326V363.443C426.47 363.736 426.38 364.029 426.38 364.3C425.66 383.722 426.065 389.22 395.12 392.848C394.265 392.938 381.639 394.132 369.981 395.236L323.731 399.202C318.735 399.63 314.301 402.536 311.871 406.93L264.07 493.816M572.876 381.753C571.998 381.753 537.897 383.001 537.041 383.024C515.773 383.655 505.331 386.111 503.013 369.91V335.751M326.373 551.586L345.742 527.905L349.636 551.586" stroke="#010101" stroke-miterlimit="10"/>
<path d="M382.327 393.927V409.316" stroke="#010101" stroke-miterlimit="10"/>
<path d="M534.699 383.089V399.245" stroke="#010101" stroke-miterlimit="10"/>
<path d="M624.403 432.973L659.535 557.981" stroke="#010101" stroke-miterlimit="10"/>
<path d="M262.262 496.977L254.587 511.436" stroke="#010101" stroke-miterlimit="10"/>
<path d="M-0.190338 551.433H36.7642" stroke="#443459" stroke-miterlimit="10"/>
<path d="M90.5959 551.433H978.608" stroke="#114659" stroke-miterlimit="10"/>
<path d="M333.927 535.066H588.175C588.175 544.079 580.861 551.402 571.859 551.402H350.266C341.264 551.402 333.95 544.079 333.95 535.066H333.927Z" fill="#ABCDD9" stroke="#114659" stroke-miterlimit="10"/>
<path d="M383.56 418.802H538.532C560.475 418.802 563.852 422.187 563.852 444.156V551.425H358.239V444.156C358.239 422.187 361.617 418.802 383.56 418.802Z" fill="#ABCDD9" stroke="#114659" stroke-miterlimit="10"/>
<path d="M472.611 473.353C474.637 475.359 476.145 477.86 476.932 480.676C477.315 482.096 477.54 483.583 477.54 485.115" fill="#CFBFDE"/>
<path d="M472.611 473.353C474.637 475.359 476.145 477.86 476.932 480.676C477.315 482.096 477.54 483.583 477.54 485.115" stroke="#114659" stroke-miterlimit="10"/>
<path d="M468.701 499.739C466.406 500.933 463.817 501.609 461.049 501.609C451.934 501.609 444.552 494.219 444.552 485.093C444.552 475.968 451.934 468.577 461.049 468.577" fill="#ABCDD9"/>
<path d="M468.701 499.739C466.406 500.933 463.817 501.609 461.049 501.609C451.934 501.609 444.552 494.219 444.552 485.093C444.552 475.968 451.934 468.577 461.049 468.577" stroke="#114659" stroke-miterlimit="10"/>
<path d="M624.403 509.965C624.403 522.403 634.463 532.474 646.887 532.474C659.31 532.474 669.37 522.403 669.37 509.965C669.37 497.527 659.31 487.455 646.887 487.455C634.463 487.455 624.403 497.527 624.403 509.965ZM635.499 509.965C635.499 503.678 640.607 498.564 646.887 498.564C653.166 498.564 658.275 503.678 658.275 509.965C658.275 516.251 653.166 521.366 646.887 521.366C640.607 521.366 635.499 516.251 635.499 509.965Z" fill="#ABCDD9"/>
<path d="M635.504 529.389C638.835 531.35 642.728 532.476 646.892 532.476C659.315 532.476 669.375 522.405 669.375 509.967M635.504 509.967C635.504 503.68 640.613 498.566 646.892 498.566C653.171 498.566 658.28 503.68 658.28 509.967" stroke="#114659" stroke-miterlimit="10"/>
<path d="M707.092 482.567H648.69V551.425H707.092V482.567Z" fill="#ABCDD9" stroke="#114659" stroke-miterlimit="10"/>
<path d="M695.056 476.508C695.056 476.508 679.166 455.463 681.35 434.688C683.533 413.914 701.965 390.458 693.638 371.373" stroke="white" stroke-miterlimit="10"/>
<path d="M675.851 476.103C675.851 476.103 666.871 459.587 669.077 438.79C671.26 418.015 702.903 377.412 655.551 320.857" stroke="white" stroke-miterlimit="10"/>
<path d="M666.101 362.743C662.658 349.968 655.659 335.998 642.988 320.879" stroke="white" stroke-miterlimit="10"/>
<path d="M824.827 281.161L924.752 417.728L857.37 522.659L836.89 519.663L902.517 420.071L806.867 288.123" fill="#337189"/>
<path d="M824.827 281.161L924.752 417.728L857.37 522.659L836.89 519.663L902.517 420.071L806.867 288.123" stroke="#114659" stroke-miterlimit="10"/>
<path d="M819.669 281.164L785.1 271.7L778.055 287.473L814.83 298.761" fill="#337189"/>
<path d="M819.669 281.164L785.1 271.7L778.055 287.473L814.83 298.761" stroke="#114659" stroke-miterlimit="10"/>
<path d="M787.579 278.032L804.458 261.133C812.155 253.427 812.155 240.922 804.458 233.216C796.761 225.51 784.271 225.51 776.574 233.216L759.694 250.115C736.558 238.624 707.751 242.499 688.463 261.787L734.308 307.684L775.898 349.324C795.163 330.036 799.034 301.173 787.556 278.01L787.579 278.032Z" fill="#ABCDD9"/>
<path d="M775.921 349.346C795.186 330.059 799.057 301.195 787.579 278.032L804.458 261.133C812.155 253.427 812.155 240.922 804.458 233.216C796.761 225.51 784.271 225.51 776.574 233.216L759.694 250.115C736.558 238.624 707.751 242.499 688.463 261.787L734.308 307.684" stroke="#114659" stroke-miterlimit="10"/>
<path d="M775.512 263.249C775.512 263.249 782.736 269.85 787.575 278.03" stroke="#114659" stroke-miterlimit="10"/>
<path d="M881.206 538.569H823.118V537.059C823.118 520.318 836.689 506.731 853.411 506.731C868.737 506.731 881.206 519.191 881.206 534.558V538.569V538.569Z" fill="#ABCDD9" stroke="#114659" stroke-miterlimit="10"/>
<path d="M827.342 525.952H784.603C772.54 525.952 762.75 535.753 762.75 547.83V551.413H901.566V538.727C901.566 531.675 895.849 525.952 888.805 525.952H868.167" fill="#ABCDD9"/>
<path d="M827.342 525.952H784.603C772.54 525.952 762.75 535.753 762.75 547.83V551.413H901.566V538.727C901.566 531.675 895.849 525.952 888.805 525.952H868.167" stroke="#114659" stroke-miterlimit="10"/>
<path d="M795.395 528.636L785.718 528.681C783.332 528.681 780.969 529.222 778.808 530.281" fill="#CFBFDE"/>
<path d="M795.395 528.636L785.718 528.681C783.332 528.681 780.969 529.222 778.808 530.281" stroke="#114659" stroke-miterlimit="10"/>
<path d="M910.663 434.625C919.277 434.625 926.259 427.635 926.259 419.011C926.259 410.387 919.277 403.396 910.663 403.396C902.049 403.396 895.066 410.387 895.066 419.011C895.066 427.635 902.049 434.625 910.663 434.625Z" fill="#ABCDD9"/>
<path d="M910.666 434.625C919.286 434.625 926.262 427.641 926.262 419.011C926.262 410.381 919.286 403.396 910.666 403.396" stroke="#114659" stroke-miterlimit="10"/>
<path d="M910.653 428.476C915.873 428.476 920.105 424.239 920.105 419.012C920.105 413.786 915.873 409.549 910.653 409.549C905.433 409.549 901.201 413.786 901.201 419.012C901.201 424.239 905.433 428.476 910.653 428.476Z" fill="#337189"/>
<path d="M819.669 306.242C828.283 306.242 835.265 299.251 835.265 290.627C835.265 282.003 828.283 275.012 819.669 275.012C811.055 275.012 804.072 282.003 804.072 290.627C804.072 299.251 811.055 306.242 819.669 306.242Z" fill="#ABCDD9"/>
<path d="M835.265 290.627C835.265 281.997 828.289 275.012 819.669 275.012C811.049 275.012 804.072 281.997 804.072 290.627" stroke="#114659" stroke-miterlimit="10"/>
<path d="M819.668 300.088C824.888 300.088 829.12 295.851 829.12 290.624C829.12 285.398 824.888 281.161 819.668 281.161C814.447 281.161 810.215 285.398 810.215 290.624C810.215 295.851 814.447 300.088 819.668 300.088Z" fill="#337189"/>
<path d="M775.52 239.814C775.52 239.814 778.986 236.277 780.584 234.767C782.182 233.257 790.622 228.571 798.296 234.451" fill="#ABCDD9"/>
<path d="M775.52 239.814C775.52 239.814 778.986 236.277 780.584 234.767C782.182 233.257 790.622 228.571 798.296 234.451" stroke="#114659" stroke-miterlimit="10"/>
<path d="M711.91 278.03L697.349 262.776C697.349 262.776 699.892 259.982 703.853 258.585" fill="#ABCDD9"/>
<path d="M711.91 278.03L697.349 262.776C697.349 262.776 699.892 259.982 703.853 258.585" stroke="#114659" stroke-miterlimit="10"/>
</g>
<defs>
<clipPath id="clip0_1_884">
<rect width="979" height="552" fill="white"/>
</clipPath>
</defs>
</svg>
