<svg width="555" height="333" viewBox="0 0 555 333" fill="none" xmlns="http://www.w3.org/2000/svg">
<g clip-path="url(#clip0_1_983)">
<path d="M-87.3119 368.897L640.034 368.897V-35.8969L-87.3119 -35.8969V368.897Z" fill="#ABCDD9"/>
<path d="M64.1197 216.662C64.1197 269.355 83.5454 317.486 115.599 354.226C153.702 397.901 209.643 324.453 271.996 324.453C335.346 324.453 392.078 397.014 430.207 352.12C461.176 315.656 479.872 268.352 479.872 216.662C479.872 101.336 386.803 7.84644 271.996 7.84644C157.188 7.84644 64.1197 101.332 64.1197 216.662Z" fill="#82B1C4"/>
<path d="M75.1679 30.4043V57.2444C75.1679 64.2752 80.8448 69.9778 87.844 69.9778H180.797L190.754 85.6148V69.9778V64.6981V30.4043C190.754 23.3734 185.077 17.6709 178.078 17.6709H87.8403C80.841 17.6709 75.1642 23.3734 75.1642 30.4043H75.1679Z" fill="#82B1C4"/>
<path d="M98.8758 17.6709H87.8462C80.847 17.6709 75.1701 23.3734 75.1701 30.4043V57.2444C75.1701 64.3688 80.9215 70.1461 88.0138 70.1461H119.181" stroke="#1D4721" stroke-miterlimit="10"/>
<path d="M127.444 17.6709H110.902" stroke="#1D4721" stroke-miterlimit="10"/>
<path d="M157.655 69.9778H180.798L190.755 85.6148V69.9778V64.6981V30.4043C190.755 23.3734 185.078 17.6709 178.079 17.6709H134.106" stroke="#114659" stroke-miterlimit="10"/>
<path d="M115.596 45.1474C115.596 48.4215 112.955 51.0744 109.696 51.0744C106.437 51.0744 103.796 48.4215 103.796 45.1474C103.796 41.8733 106.437 39.2203 109.696 39.2203C112.955 39.2203 115.596 41.8733 115.596 45.1474Z" fill="white" stroke="#114659" stroke-miterlimit="10"/>
<path d="M130.723 51.0744C133.982 51.0744 136.624 48.4208 136.624 45.1474C136.624 41.874 133.982 39.2203 130.723 39.2203C127.465 39.2203 124.823 41.874 124.823 45.1474C124.823 48.4208 127.465 51.0744 130.723 51.0744Z" fill="white" stroke="#114659" stroke-miterlimit="10"/>
<path d="M157.651 45.1474C157.651 48.4215 155.01 51.0744 151.75 51.0744C148.491 51.0744 145.85 48.4215 145.85 45.1474C145.85 41.8733 148.491 39.2203 151.75 39.2203C155.01 39.2203 157.651 41.8733 157.651 45.1474Z" fill="white" stroke="#114659" stroke-miterlimit="10"/>
<path d="M554.424 225.512V251.724C554.424 258.59 548.881 264.158 542.046 264.158H451.268L441.542 279.428V264.158V259.002V225.509C441.542 218.642 447.085 213.075 453.92 213.075H542.042C548.877 213.075 554.42 218.642 554.42 225.509L554.424 225.512Z" fill="#82B1C4"/>
<path d="M531.271 213.078H542.04C548.875 213.078 554.418 218.645 554.418 225.512V251.723C554.418 258.679 548.804 264.322 541.876 264.322H511.439" stroke="#114659" stroke-miterlimit="10"/>
<path d="M503.366 213.078H519.525" stroke="#114659" stroke-miterlimit="10"/>
<path d="M473.865 264.161H451.262L441.536 279.431V264.161V259.005V225.512C441.536 218.645 447.079 213.078 453.914 213.078H496.856" stroke="#114659" stroke-miterlimit="10"/>
<path d="M520.701 245.7C523.884 245.7 526.464 243.108 526.464 239.911C526.464 236.714 523.884 234.123 520.701 234.123C517.519 234.123 514.939 236.714 514.939 239.911C514.939 243.108 517.519 245.7 520.701 245.7Z" fill="white" stroke="#114659" stroke-miterlimit="10"/>
<path d="M500.16 245.7C503.343 245.7 505.923 243.108 505.923 239.911C505.923 236.714 503.343 234.123 500.16 234.123C496.978 234.123 494.398 236.714 494.398 239.911C494.398 243.108 496.978 245.7 500.16 245.7Z" fill="white" stroke="#114659" stroke-miterlimit="10"/>
<path d="M479.631 245.7C482.814 245.7 485.394 243.108 485.394 239.911C485.394 236.714 482.814 234.123 479.631 234.123C476.449 234.123 473.869 236.714 473.869 239.911C473.869 243.108 476.449 245.7 479.631 245.7Z" fill="white" stroke="#114659" stroke-miterlimit="10"/>
<path d="M375.452 156.771H462.966C470.553 156.771 476.704 150.593 476.704 142.971V21.291C476.704 13.6696 470.553 7.4912 462.966 7.4912H375.452C367.865 7.4912 361.714 13.6696 361.714 21.291V142.971C361.714 150.593 367.865 156.771 375.452 156.771Z" fill="#ABCDD9" stroke="#114659" stroke-miterlimit="10"/>
<path d="M428.573 61.5773C428.573 57.0796 425.485 54.1348 419.469 54.1348C412.526 54.1348 407.895 58.9393 404.655 66.3818L381.195 52.8925C388.295 35.6839 403.727 27.3135 420.549 27.3135C439.379 27.3135 456.044 38.4753 456.044 58.1648C456.044 81.4202 431.661 87.9309 431.661 98.6288H405.426C405.426 79.871 428.576 73.3603 428.576 61.5773H428.573Z" fill="#337189" stroke="#114659" stroke-miterlimit="10"/>
<path d="M418.54 140.331C427.404 140.331 434.591 133.112 434.591 124.208C434.591 115.303 427.404 108.084 418.54 108.084C409.675 108.084 402.489 115.303 402.489 124.208C402.489 133.112 409.675 140.331 418.54 140.331Z" fill="#337189" stroke="#114659" stroke-miterlimit="10"/>
<path d="M0.190834 255.445L127.041 255.445L127.041 128.022H0.190834L0.190834 255.445Z" stroke="#114659" stroke-miterlimit="10"/>
<path d="M53.7017 202.826H39.8336L38.0494 208.865H26.502L40.2508 167.013H53.2249L66.9738 208.865H55.486L53.7017 202.826V202.826ZM50.9639 193.617L46.736 179.387L42.5715 193.617H50.9639V193.617Z" fill="#337189"/>
<path d="M99.5871 178.967V208.86H89.7085V206.11C87.805 208.381 85.0672 209.698 81.2565 209.698C73.2813 209.698 67.2692 202.881 67.2692 193.915C67.2692 184.95 73.2813 178.132 81.2565 178.132C85.0672 178.132 87.805 179.45 89.7085 181.721V178.971H99.5871V178.967ZM89.7085 193.915C89.7085 190.028 87.1494 187.397 83.458 187.397C79.7665 187.397 77.2075 190.028 77.2075 193.915C77.2075 197.803 79.7665 200.434 83.458 200.434C87.1494 200.434 89.7085 197.803 89.7085 193.915Z" fill="#337189"/>
<path d="M123.903 238.676H157.637C167.31 238.676 175.152 230.799 175.152 221.083C175.152 211.368 167.31 203.491 157.637 203.491H123.903C114.23 203.491 106.389 211.368 106.389 221.083C106.389 230.799 114.23 238.676 123.903 238.676Z" fill="#ABCDD9" stroke="#114659" stroke-miterlimit="10"/>
<path d="M156.893 235.694C164.924 235.694 171.435 229.154 171.435 221.086C171.435 213.018 164.924 206.478 156.893 206.478C148.861 206.478 142.35 213.018 142.35 221.086C142.35 229.154 148.861 235.694 156.893 235.694Z" fill="#82B1C4"/>
<path d="M533.582 331.091H511.753" stroke="#443459" stroke-miterlimit="10"/>
<path d="M200.812 292.321C199.02 300.276 186.043 317.649 209.305 320.366L200.812 292.321Z" fill="#9C7154" stroke="#010101" stroke-miterlimit="10"/>
<path d="M274.676 292.321C276.467 300.276 289.445 317.649 266.183 320.366L274.676 292.321Z" fill="#9C7154" stroke="#010101" stroke-miterlimit="10"/>
<path d="M223.802 209.339C223.802 209.339 239.365 204.482 261.499 204.482C283.633 204.482 297.095 209.373 297.095 209.373L295.877 227.58L230.369 227.764L223.802 209.339Z" fill="#464545" stroke="#010101" stroke-linejoin="bevel"/>
<path d="M137.645 326.441L136.46 352.121L381.825 349.988L379.813 297.221C379.47 274.254 376.978 264.491 367.04 258.478L265.192 198.411C265.192 198.411 213.977 224.476 211.407 225.513C208.833 226.549 200.727 231.563 197.725 232.948C194.723 234.332 154.322 256.488 154.322 256.488C143.679 261.251 141.456 270.228 140.543 288.925C140.375 292.364 137.645 326.437 137.645 326.437V326.441Z" fill="#464545"/>
<path d="M183.39 328.25L183.189 309.159" stroke="#010101" stroke-miterlimit="10"/>
<path d="M330.765 309.553V328.202" stroke="#010101" stroke-miterlimit="10"/>
<path d="M301.473 218.929C301.473 218.929 300.381 218.944 295.531 216.722C290.778 214.544 290.376 213.178 289.813 211.794C289.251 210.409 289.813 183.547 290.938 161.227L260.591 161.028L230.24 161.227C231.365 183.547 231.927 210.413 231.365 211.794C230.802 213.178 230.489 214.911 225.71 216.819C220.853 218.757 219.709 218.81 219.709 218.81L229.655 230.245C234.769 234.248 240.461 237.129 246.41 238.884C248.515 243.805 260.505 278.465 260.505 278.465C260.505 278.465 271.598 245.608 274.697 238.941C280.683 237.197 286.416 234.316 291.568 230.297L301.476 218.929H301.473Z" fill="#F0D2CE"/>
<path d="M241.864 224.257L233.409 222.797L231.282 236.549L247.638 241.144L241.864 224.257Z" fill="#464545"/>
<path d="M273.389 241.144L279.163 224.257L287.619 222.797L289.742 236.549L273.389 241.144Z" fill="#464545"/>
<path d="M289.524 189.876V206.732C287.779 208.45 286.301 209.823 285.501 210.428C283.013 212.31 279.865 213.717 276.349 214.349C271.339 215.251 263.822 215.251 258.812 214.349C255.295 213.717 252.148 212.31 249.66 210.428C246.866 208.314 235.784 196.826 233.966 193.975C209.422 155.452 279.811 186.854 289.524 189.876Z" fill="#C6A5A7"/>
<path d="M231.442 199.876C231.46 200.695 231.475 201.47 231.49 202.184" stroke="#010101" stroke-miterlimit="10"/>
<path d="M231.353 195.445C231.368 196.093 231.409 197.93 231.412 198.222" stroke="#010101" stroke-miterlimit="10"/>
<path d="M230.238 155.026C230.688 163.957 231.128 183.748 231.374 194.292" stroke="#010101" stroke-miterlimit="10"/>
<path d="M290.94 155.026C289.815 177.346 289.253 210.416 289.815 211.797C290.377 213.181 291.286 214.61 295.809 217.129C300.956 219.999 334.708 239.778 334.708 239.778" stroke="#010101" stroke-miterlimit="10"/>
<path d="M305.835 114.322C306.073 113.312 306.267 112.275 306.408 111.209C308.051 98.76 302.076 87.5982 293.062 86.2736C290.961 85.9667 288.879 86.2249 286.904 86.9546C285.191 80.2305 278.657 74.9284 270.343 73.4803C266.384 69.731 260.491 67.3512 253.901 67.3512C249.115 67.3512 244.697 68.6084 241.117 70.7301C235.109 73.5289 230.259 80.7357 229.067 89.746C229.03 90.0191 229.018 90.2923 228.989 90.5654C221.192 91.456 214.294 99.7666 212.841 110.756C212.14 116.062 212.833 121.125 214.547 125.301C211.902 128.246 210.028 132.193 209.432 136.71C208.039 147.261 214.137 156.874 223.043 158.184C231.954 159.49 240.305 151.999 241.698 141.447C242.276 137.065 241.549 132.855 239.877 129.323C242.711 125.768 244.764 120.986 245.479 115.55C245.516 115.276 245.527 115.003 245.557 114.73C250.117 114.21 254.371 111.149 257.406 106.494C259.977 107.362 262.8 107.845 265.761 107.845C268.723 107.845 271.274 107.404 273.744 106.61C272.817 113.985 274.567 120.878 278.028 125.533C278.017 125.615 277.998 125.69 277.987 125.772C276.594 136.324 282.688 145.937 291.598 147.246C300.508 148.552 308.859 141.061 310.253 130.509C311.076 124.275 309.269 118.386 305.831 114.326L305.835 114.322Z" fill="#9C7154"/>
<path d="M291.605 147.246C300.515 148.552 308.866 141.06 310.26 130.509C311.083 124.275 309.276 118.385 305.838 114.325C306.076 113.315 306.27 112.278 306.412 111.212C308.054 98.7629 302.08 87.6011 293.065 86.2765C290.964 85.9697 288.882 86.2278 286.908 86.9575C285.194 80.2335 278.661 74.9313 270.346 73.4832C266.387 69.7339 260.494 67.3541 253.904 67.3541" stroke="#010101" stroke-miterlimit="10"/>
<path d="M228.994 90.5653C221.198 91.4559 214.299 99.7664 212.847 110.756C212.146 116.062 212.839 121.125 214.553 125.301C211.908 128.245 210.034 132.193 209.438 136.709C208.045 147.261 214.143 156.874 223.049 158.184" stroke="#010101" stroke-miterlimit="10"/>
<path d="M301.651 121.671C301.651 115.857 300.526 110.315 298.496 105.278C296.462 100.238 293.523 95.7032 289.891 91.8902C286.259 88.0811 281.931 84.9941 277.126 82.865C272.32 80.7321 267.038 79.5535 261.496 79.5535C255.953 79.5535 250.671 80.7321 245.866 82.865C241.06 84.9978 236.736 88.0811 233.1 91.8902C229.468 95.6994 226.526 100.238 224.495 105.278C222.462 110.319 221.34 115.857 221.34 121.671V139.767C221.34 144.646 223.654 149.832 224.592 154.577C225.557 162.274 226.302 168.99 230.359 176.148L238.937 187.453C248.447 197.178 252.895 197.776 261.715 197.776C270.89 197.776 276.496 196.448 284.378 186.693L292.514 175.756C296.116 169.398 295.94 163.576 297.118 156.972C298.406 151.452 301.655 145.488 301.655 139.763V121.668L301.651 121.671Z" fill="#F0D2CE"/>
<path d="M263.192 103.457C272.754 103.457 282.745 96.9009 282.745 96.9009C282.745 96.9009 296.382 104.912 296.382 111.026C296.382 117.14 296.553 145.791 296.553 145.791L301.679 139.767V121.672C301.679 115.857 305.474 108.063 303.258 102.562C301.042 97.0618 283.829 84.4893 278.584 82.1619C273.339 79.8345 267.066 79.5576 261.523 79.5576L261.494 78.551C255.44 78.551 249.678 79.8382 244.433 82.1619C239.188 84.4893 221.979 97.0618 219.759 102.562C217.543 108.063 219.707 116.093 219.707 121.911L221.338 139.771L226.464 145.795C226.464 145.795 226.635 117.14 226.635 111.03C226.635 104.92 234.536 101.305 234.536 101.305C234.536 101.305 250.263 103.46 259.829 103.46H261.296" fill="#9C7154"/>
<path d="M225.714 138.934C244.644 127.016 234.207 110.904 248.261 98.3726L238.934 90.4849L225.002 102.631L222.112 131.675L225.714 138.934Z" fill="#9C7154"/>
<path d="M225.712 138.936C245.115 127.351 233.568 111.845 247.097 99.3024C252.23 94.5428 258.101 98.0676 262.373 101.054" stroke="#010101" stroke-miterlimit="10"/>
<path d="M253.899 67.3512C249.112 67.3512 244.695 68.6084 241.115 70.7301C235.106 73.5289 230.257 80.7357 229.065 89.746C229.027 90.0191 227.575 107.43 227.545 107.703" stroke="#010101" stroke-miterlimit="10"/>
<path d="M298.273 126.406C285.749 116.804 293.423 100.509 283.064 96.8232L288.625 90.8101L298.791 99.7343L300.899 121.074L298.269 126.406H298.273Z" fill="#9C7154"/>
<path d="M298.273 126.404C285.749 116.803 293.423 100.507 283.064 96.8217" stroke="#010101" stroke-miterlimit="10"/>
<path d="M245.046 145.434C246.757 145.434 248.145 144.04 248.145 142.321C248.145 140.601 246.757 139.207 245.046 139.207C243.334 139.207 241.947 140.601 241.947 142.321C241.947 144.04 243.334 145.434 245.046 145.434Z" fill="#010101"/>
<path d="M237.136 129.897C240.962 128.119 251.537 128.812 251.537 128.812" stroke="#010101" stroke-miterlimit="10"/>
<path d="M278.476 143.796C280.187 143.796 281.575 142.402 281.575 140.683C281.575 138.963 280.187 137.57 278.476 137.57C276.764 137.57 275.377 138.963 275.377 140.683C275.377 142.402 276.764 143.796 278.476 143.796Z" fill="#010101"/>
<path d="M272.173 131.19C272.173 131.19 282.805 130.939 286.82 132.215Z" fill="#629AB0"/>
<path d="M272.173 131.19C272.173 131.19 282.805 130.939 286.82 132.215" stroke="#010101" stroke-linejoin="bevel"/>
<path d="M254.498 160.136C256.874 162.06 259.489 163.122 262.234 163.122C264.98 163.122 267.591 162.06 269.971 160.136" stroke="#010101" stroke-miterlimit="10"/>
<path d="M214.514 143.806C216.25 137.823 222.705 137.872 227.946 139.855C233.183 141.834 236.026 148.293 234.29 154.276C232.554 160.259 226.903 163.503 221.666 161.52C216.428 159.541 212.782 149.789 214.518 143.806H214.514Z" fill="#F0D2CE"/>
<path d="M225.977 139.13C225.228 138.947 224.465 138.812 223.705 138.734C219.704 138.326 215.759 139.512 214.512 143.808C212.776 149.791 216.422 159.538 221.66 161.521L224.755 162.311" stroke="#010101" stroke-miterlimit="10"/>
<path d="M226.442 138.667L226.613 147.03" stroke="#010101" stroke-miterlimit="10"/>
<path d="M307.495 143.806C305.76 137.823 299.304 137.872 294.063 139.855C288.826 141.834 285.984 148.293 287.72 154.276C289.455 160.259 295.106 163.503 300.343 161.52C305.581 159.541 309.228 149.789 307.492 143.806H307.495Z" fill="#F0D2CE"/>
<path d="M296.528 139.013C301.05 138.04 306.068 138.871 307.498 143.806C309.234 149.789 305.587 159.537 300.35 161.52L298.044 162.362" stroke="#010101" stroke-miterlimit="10"/>
<path d="M296.481 137.483L296.648 147.029" stroke="#010101" stroke-miterlimit="10"/>
<path d="M261.913 168.78C270.916 168.821 278.936 166.494 280.292 166.494C283.421 166.494 285.499 170.524 286.878 172.32C288.349 169.375 292.186 167.396 294.32 160.518C294.749 156.642 296.06 141.974 296.373 142.599C297.278 144.398 298.932 162.543 298.932 162.543C298.932 162.543 293.799 190.299 292.923 191.68C291.355 194.157 279.454 204.14 277.025 205.978C274.865 207.613 272.127 208.836 269.072 209.386C264.718 210.168 258.188 210.168 253.833 209.386C250.775 208.836 248.041 207.613 245.881 205.978C243.452 204.14 230.318 194.157 228.749 191.68C227.874 190.299 223.974 162.543 223.974 162.543C223.974 162.543 225.628 144.398 226.533 142.599C226.846 141.974 229.822 156.26 230.251 160.137C232.381 167.014 239.287 170.168 240.759 173.113C242.137 171.313 244.216 167.287 247.344 167.287C248.7 167.287 251.99 168.821 260.993 168.78H261.928H261.913Z" fill="#9C7154" stroke="#010101" stroke-miterlimit="10"/>
<path d="M272.006 174.654C269.004 175.2 265.405 175.63 261.33 175.675C257.486 175.716 254.067 175.406 251.176 174.972" stroke="#010101" stroke-miterlimit="10"/>
<path d="M268.549 102.902C276.677 101.462 282.753 96.8965 282.753 96.8965L284.6 95.7029" stroke="#010101" stroke-miterlimit="10"/>
<path d="M264.237 103.33C266.781 103.109 266.573 99.1425 269.966 98.7609" stroke="#010101" stroke-miterlimit="10"/>
<path d="M244.989 102.613C249.973 103.447 254.577 103.488 258.712 103.425" stroke="#010101" stroke-miterlimit="10"/>
<path d="M264.202 268.089L279.135 224.5L287.62 222.798" stroke="#010101" stroke-miterlimit="10"/>
<path d="M297.097 209.345C293.044 212.608 279.262 224.327 279.262 224.327L288.179 243.575C288.179 243.575 307.791 229.697 308.145 222.965C303.906 219.721 300.803 213.835 297.097 209.349V209.345Z" fill="#464545" stroke="#010101" stroke-linejoin="bevel"/>
<path d="M256.826 268.089L241.893 224.5L233.411 222.798" stroke="#010101" stroke-miterlimit="10"/>
<path d="M223.936 209.345C227.989 212.608 241.771 224.327 241.771 224.327L232.854 243.575C232.854 243.575 213.242 229.697 212.888 222.965C215.79 219.467 220.152 212.185 223.936 209.349V209.345Z" fill="#464545" stroke="#010101" stroke-linejoin="bevel"/>
<path d="M329.845 331.085H192.528C188.985 331.085 186.11 328.196 186.11 324.637V321.401H336.263V324.637C336.263 328.196 333.388 331.085 329.845 331.085V331.085Z" fill="#D3E5EB" stroke="#010101" stroke-miterlimit="10"/>
<path d="M321.897 331.085H200.471V261.36C200.471 256.473 204.423 252.503 209.288 252.503H313.08C317.945 252.503 321.897 256.473 321.897 261.36V331.085V331.085Z" fill="#D3E5EB" stroke="#010101" stroke-miterlimit="10"/>
<path d="M254.352 284.823C253.156 286.006 252.262 287.495 251.8 289.164C251.569 290.002 251.443 290.881 251.443 291.794" fill="#CFBFDE"/>
<path d="M254.352 284.823C253.156 286.006 252.262 287.495 251.8 289.164C251.569 290.002 251.443 290.881 251.443 291.794" stroke="#114659" stroke-miterlimit="10"/>
<path d="M256.668 300.463C258.017 301.174 259.555 301.578 261.187 301.578C266.566 301.578 270.924 297.196 270.924 291.797C270.924 286.394 266.562 282.016 261.187 282.016" stroke="#114659" stroke-miterlimit="10"/>
<path d="M66.0505 368.897L455.493 368.897V331.089L66.0505 331.089V368.897Z" fill="#ABCDD9"/>
<path d="M479.969 331.091H8.16772" stroke="#114659" stroke-miterlimit="10"/>
</g>
<defs>
<clipPath id="clip0_1_983">
<rect width="555" height="333" fill="white"/>
</clipPath>
</defs>
</svg>
